<?xml version="1.0" encoding="utf-8"?>
<!-- Generator: Adobe Illustrator 22.0.1, SVG Export Plug-In . SVG Version: 6.00 Build 0)  -->
<svg version="1.1" id="Layer_1" xmlns="http://www.w3.org/2000/svg" xmlns:xlink="http://www.w3.org/1999/xlink" x="0px" y="0px"
	 viewBox="0 0 100 100" style="enable-background:new 0 0 100 100;" xml:space="preserve">
<path d="M50,1C22.9,1,1,23.5,1,51.2c0,22.2,14,41,33.5,47.7c2.4,0.5,3.3-1.1,3.3-2.4c0-1.2,0-4.4-0.1-8.5c-13.6,3-16.5-6.7-16.5-6.7
	c-2.2-5.8-5.4-7.3-5.4-7.3c-4.5-3.1,0.3-3.1,0.3-3.1c4.9,0.4,7.5,5.2,7.5,5.2c4.4,7.7,11.5,5.5,14.3,4.2c0.4-3.3,1.7-5.5,3.1-6.7
	c-10.9-1.3-22.3-5.6-22.3-24.8c0-5.5,1.9-10,5-13.5c-0.5-1.3-2.2-6.4,0.5-13.3c0,0,4.1-1.4,13.5,5.2c3.9-1.1,8.1-1.7,12.3-1.7
	c4.2,0,8.4,0.6,12.3,1.7c9.4-6.5,13.5-5.2,13.5-5.2c2.7,6.9,1,12,0.5,13.3c3.1,3.5,5,8,5,13.5c0,19.3-11.5,23.5-22.4,24.8
	c1.8,1.6,3.3,4.6,3.3,9.3c0,6.7-0.1,12.1-0.1,13.8c0,1.3,0.9,2.9,3.4,2.4C85,92.2,99,73.4,99,51.2C99,23.5,77.1,1,50,1z"/>
</svg>
