<?xml version="1.0" encoding="utf-8"?>
<!-- Generator: Adobe Illustrator 22.0.1, SVG Export Plug-In . SVG Version: 6.00 Build 0)  -->
<svg version="1.1" id="Layer_1" xmlns="http://www.w3.org/2000/svg" xmlns:xlink="http://www.w3.org/1999/xlink" x="0px" y="0px"
	 viewBox="0 0 100 100" style="enable-background:new 0 0 100 100;" xml:space="preserve">
<title>slack</title>
	<path d="M49,0A49,49,0,1,0,98,49,49,49,0,0,0,49,0ZM80.19,80.27H17.81V17.73H80.19Z"/>
	<rect x="23.19" y="68.53" width="23.4" height="3.91"/>
	<path d="M23,34.14l1.79-1.71a2,2,0,0,0,1.63,1c.74,0,1.06-.49,1.06-1.46V25.41h2.78v6.53a3.91,3.91,0,0,1-1,2.85,3.74,3.74,0,0,1-2.78,1A3.76,3.76,0,0,1,23,34.14Z"/>
	<polygon points="30.86 25.58 39.09 25.58 39.09 27.94 33.71 27.94 33.71 29.49 38.6 29.49 38.6 31.69 33.71 31.69 33.71 33.32 39.17 33.32 39.17 35.77 31.02 35.77 30.86 25.58"/>
	<polygon points="42.76 28.02 39.74 28.02 39.74 25.58 48.63 25.58 48.63 28.02 45.62 28.02 45.62 35.77 42.76 35.77 42.76 28.02"/>
	<path d="M23.19,38.05h5.22a4.31,4.31,0,0,1,2.77.9,2.34,2.34,0,0,1,.66,1.71h0A2.55,2.55,0,0,1,30.29,43a2.43,2.43,0,0,1,2,2.44h0c0,1.71-1.46,2.86-3.83,2.86H23.19Zm5.87,3.26c0-.65-.49-.89-1.22-.89H26v1.87h1.71c.89-.16,1.38-.41,1.38-1Zm-1,2.94H25.88v1.87h2.21c.89,0,1.3-.4,1.3-1h0C29.39,44.49,29,44.25,28.09,44.25Z"/>
	<path d="M32.73,38.05h4.73a4.39,4.39,0,0,1,3.35,1.14,3,3,0,0,1,.81,2.37h0a3.26,3.26,0,0,1-2,3.18L42,48.33H38.85l-2.12-3.1H35.51v3H32.73Zm4.65,5c1,0,1.47-.49,1.47-1.23h0c0-.89-.65-1.22-1.47-1.22H35.59V43Z"/>
	<path d="M45,38.05h2.69l4.24,10.28h-3l-.74-1.88H44.23l-.73,1.88H40.56Zm2.45,6.2-1.14-2.86-1.14,2.86Z"/>
	<polygon points="52.3 38.05 55.16 38.05 55.16 48.24 52.3 48.24 52.3 38.05"/>
	<polygon points="55.81 38.05 58.42 38.05 62.58 43.52 62.58 38.05 65.35 38.05 65.35 48.24 62.9 48.24 58.66 42.78 58.66 48.41 55.81 48.41 55.81 38.05"/>
	<path d="M65.59,46.78l1.63-1.88a4.54,4.54,0,0,0,3.27,1.22c.73,0,1.22-.24,1.22-.73h0c0-.49-.41-.65-1.71-1-2.21-.49-3.84-1.14-3.84-3.18h0c0-1.87,1.47-3.34,3.92-3.34a6.28,6.28,0,0,1,4.16,1.38l-1.47,2a5.26,5.26,0,0,0-2.86-1c-.73,0-1,.25-1,.66h0c0,.48.4.65,1.71,1,2.36.49,3.83,1.23,3.83,3.18h0c0,2.12-1.63,3.35-4.16,3.35A6.61,6.61,0,0,1,65.59,46.78Z"/>
</svg>