<?xml version="1.0" encoding="utf-8"?>
<!-- Generator: Adobe Illustrator 22.0.1, SVG Export Plug-In . SVG Version: 6.00 Build 0)  -->
<!DOCTYPE svg PUBLIC "-//W3C//DTD SVG 1.1//EN" "http://www.w3.org/Graphics/SVG/1.1/DTD/svg11.dtd">
<svg version="1.1" id="Layer_1" xmlns="http://www.w3.org/2000/svg" xmlns:xlink="http://www.w3.org/1999/xlink" x="0px" y="0px"
	 width="100px" height="100px" viewBox="0 0 100 100" enable-background="new 0 0 100 100" xml:space="preserve">
<path d="M50,1C22.9,1,1,22.9,1,50s21.9,49,49,49s49-21.9,49-49S77.1,1,50,1z M69,42.6c0,10.471-9.542,24.742-19,41.8
	c-9.458-17.058-19-31.329-19-41.8s8.529-19,19-19S69,32.129,69,42.6z M50,50.2c-4.222,0-7.6-3.378-7.6-7.6S45.778,35,50,35
	s7.6,3.378,7.6,7.6S54.222,50.2,50,50.2z"/>
</svg>
