<?xml version="1.0" encoding="utf-8"?>
<!-- Generator: Adobe Illustrator 22.0.1, SVG Export Plug-In . SVG Version: 6.00 Build 0)  -->
<svg version="1.1" id="Layer_1" xmlns="http://www.w3.org/2000/svg" xmlns:xlink="http://www.w3.org/1999/xlink" x="0px" y="0px"
	 viewBox="0 0 100 100" style="enable-background:new 0 0 100 100;" xml:space="preserve">
<title>location</title>
<path d="M50,33.5c5,0,9,4,9,9s-4,9-9,9s-9-4-9-9S45,33.5,50,33.5z M50,1C22.9,1,1,22.9,1,50s21.9,49,49,49s49-21.9,49-49
	S77.1,1,50,1z M50,92C38.8,71.8,27.5,54.9,27.5,42.5S37.6,20,50,20s22.5,10.1,22.5,22.5S61.2,71.8,50,92z"/>
</svg>
