<?xml version="1.0" encoding="utf-8"?>
<!-- Generator: Adobe Illustrator 22.0.1, SVG Export Plug-In . SVG Version: 6.00 Build 0)  -->
<svg version="1.1" id="Layer_1" xmlns="http://www.w3.org/2000/svg" xmlns:xlink="http://www.w3.org/1999/xlink" x="0px" y="0px"
	 viewBox="0 0 100 100" style="enable-background:new 0 0 100 100;" xml:space="preserve">
<title>slack</title>
<path d="M50,1C22.9,1,1,22.9,1,50s21.9,49,49,49s49-21.9,49-49S77.1,1,50,1z M78.4,58.3l-6.6,2.3L74,67c0.2,0.6,0.3,1.2,0.3,1.8
	c0,3-2.5,5.6-5.5,5.6c-2.4,0-4.6-1.5-5.3-3.8l-2.1-6.3l-11.9,4.1l2.1,6.3c0.2,0.6,0.3,1.2,0.3,1.8c0,3-2.5,5.6-5.5,5.6
	c-2.4,0-4.5-1.5-5.3-3.8L39,72l-5.9,2c-0.6,0.2-1.3,0.3-1.9,0.3c-3.1,0-5.5-2.3-5.5-5.4c0-2.4,1.5-4.5,3.8-5.3l6-2l-4-12l-6,2.1
	c-0.6,0.2-1.2,0.3-1.8,0.3c-3.1,0-5.5-2.3-5.5-5.4c0-2.4,1.5-4.5,3.8-5.3l6-2l-2-6.1c-0.2-0.6-0.3-1.2-0.3-1.8c0-3,2.5-5.6,5.5-5.6
	c2.4,0,4.5,1.5,5.3,3.8l2.1,6.2l11.9-4l-2.1-6.2c-0.2-0.6-0.3-1.2-0.3-1.8c0-3,2.5-5.6,5.5-5.6c2.4,0,4.6,1.5,5.3,3.8l2,6.2l6.2-2.1
	c0.5-0.2,1.1-0.2,1.7-0.2c3,0,5.6,2.2,5.6,5.3c0,2.4-1.8,4.4-4,5.1l-6,2.1l4,12.2l6.3-2.2c0.6-0.2,1.2-0.3,1.8-0.3
	c3.2,0,5.6,2.3,5.6,5.5C82,55.8,80.7,57.5,78.4,58.3z M41.8,45.9l4.1,12l11.9-4l-4-12.1L41.8,45.9z"/>
</svg>
