<svg xmlns="http://www.w3.org/2000/svg" viewBox="0 0 593.35 303.41"><defs><style>.cls-1{fill:#394355;}.cls-2{fill:#3d99d5;}.cls-3{fill:#fff;}</style></defs><title>for_rex</title><g id="Ebene_2" data-name="Ebene 2"><g id="Ebene_1-2" data-name="Ebene 1"><rect class="cls-1" x="431.36" y="232.77" width="86.89" height="34.33" rx="12" ry="12"/><path class="cls-1" d="M581.42,61.26a6.28,6.28,0,0,0,.83-1.61,40.27,40.27,0,0,0,2.48-14,44.47,44.47,0,0,0-2.19-13.05c-3.85-11.35-16.85-22.94-34-30.24a5.19,5.19,0,0,0-.93-.34c-16.36-4.43-33.85-.73-49.24,2.58L496.82,5c-1.7.29-3.46.68-5.26,1.07a58.92,58.92,0,0,1-6.33,1.17,1.91,1.91,0,0,0-.39-.49,7.28,7.28,0,0,0-5.26-2.39,17.28,17.28,0,0,1-3-.54,36.94,36.94,0,0,0-4-.73,34.11,34.11,0,0,1-3.65-1c-3.21-1-7.21-2.24-12-1.9a9,9,0,0,0-1.12.19c-6.14,1.46-11.25,6.53-12.37,12.32a6.58,6.58,0,0,0,0,2.58,12.09,12.09,0,0,0,1.46,4.14c-6.72,1.51-13.1,3.41-19,5.16l-1.12.34a7.39,7.39,0,0,0-3.85,2.73A61.74,61.74,0,0,0,406,25.66a5.23,5.23,0,0,0-1.9.24c-.63.15-1.31.24-1.95.34a19.44,19.44,0,0,0-7,2.09c-7.11,1.8-25.76,8.82-30,12.47A7.5,7.5,0,0,0,363,44.21l-.29,1a60.94,60.94,0,0,0-2.92,13.34,4.31,4.31,0,0,0,0,1.12,21.07,21.07,0,0,0-2,1.7A6.58,6.58,0,0,0,356.5,63c-4.77,8.18-5.11,15-1,20.46a6.9,6.9,0,0,0,1,1.07,17.2,17.2,0,0,0-.39,7.5,7.79,7.79,0,0,0,.24,1,9.11,9.11,0,0,0,2.34,3.85c-.1.44-.24.88-.34,1.27a42.27,42.27,0,0,1-1.27,4.14c-.19.68-.49,1.36-.73,2.09-1.56,4.14-4.09,11.06.1,17.44a17.49,17.49,0,0,0,5.11,6l0,0,.16.07.07,0a7.51,7.51,0,0,0,2.2.94l51.76,22.51c-3.86,5.77-8.77,14-11.1,22.77-3.26,7.79-1.17,15.24.54,21.23a51.79,51.79,0,0,1,1.56,6.72,77.11,77.11,0,0,0,3.7,13.2c1.95,9.74,9,15.54,14.76,20.21,1.56,1.27,3.17,2.53,4.63,3.9a9.51,9.51,0,0,0,1.12.83,13.56,13.56,0,0,1,1.22.83,7.44,7.44,0,0,0,1.17,5.55c7.31,10.62,15,21.33,22.55,31.71,4.43,6.14,8.91,12.32,13.3,18.51a9.24,9.24,0,0,0,.93,1,9.25,9.25,0,0,0,7.55,5.45,3.69,3.69,0,0,0,.73,0,6.26,6.26,0,0,0,5.5-3c7.35-10,14.56-20.16,21.82-30.29l9.94-13.88a7.3,7.3,0,0,0,1.66-1.8c4.87-7.5,10.37-15,15.73-22.35,4.48-6.14,9.06-12.47,13.39-18.85a7.32,7.32,0,0,0,1.17-5.31,21.56,21.56,0,0,0-2.48-6.57,12.52,12.52,0,0,1-1.17-2.73,7.65,7.65,0,0,0-.19-1.12q1.83-1.46,3.8-2.92c1.95-1.46,3.85-2.87,5.75-4.53a7,7,0,0,0,1.36-1.56c1.51-2.34,3.21-4.77,4.92-7.21a136,136,0,0,0,10-15.78,137,137,0,0,0,7.21-12c4.82-6.87,8.57-14.42,12.22-21.67,1.22-2.39,2.39-4.72,3.6-7.06a7.32,7.32,0,0,0,.83-3.65C592.62,100.66,591,79.38,581.42,61.26Z"/><path class="cls-2" d="M566.56,45.72a14.71,14.71,0,0,1-5.11-1c-3.75-1-8-.63-11.64-2-15-2.24-32.83-1.41-47.68.15l-.44-.58c-.83.44-1.75,2.14-2.92,1.61l-.83-1c-1,.34-1.07,1.8-2.53,1.7A36.67,36.67,0,0,0,490,36.71a2.45,2.45,0,0,1,1.17-1.8c2.14.1,3.21,2.29,4.87,3.36-.54-3.07-3.12-5.89-4.43-8.62,1-.93,2.34-1.7,3.41-.19a16.44,16.44,0,0,0,3.85,5.07c.88-1.9-1.07-3.65-1.56-5.45-.44-.68-1.22-1.12-1.17-2-1.7-.88-2.09-3.12-4.09-3.7a2.64,2.64,0,0,1-.68-2c1.8-.88,4,.19,6,.29,10.86,2.44,23.67-.34,34.58-2.39,11.88-1.8,18.31,9.11,25.52,16.32,2.14,2.14,3.8,5.75,7.21,6.87.68,1.17,2,1.61,1.95,3.26m-77.83-7.26c1.46,2.14,3.51,4,3.94,6.62-.63.73-1.12.63-1.95.29-1.36-2.29-3.6-3.8-5.75-5.65-.44-.88.54-1.41.68-1.7,1.07-.73,2.19,0,3.07.44m-2.92,5.7c.73.83,1.66,1.56,1.41,2.82a5.1,5.1,0,0,1-1.41.58,41.48,41.48,0,0,0-5.89-6.14c-.49-.24,0-1,.44-1.07,2.53-.24,3.75,2.34,5.45,3.8m-6.09.88c.24,1,1.46,1.66.83,2.78a3,3,0,0,1-2.44-1.61c-1.7-1-2.68-2.68-4.43-3.17.44-.88,1.61-1,2.68-.93Zm-7,1.07c0,.68-.73,1.22-1.22.63-.93-.63-2.87-.93-2.48-2.58,1.85-.58,2.24,1.31,3.7,1.95m-47.68.1c.93,4.24-3.36,7-5.84,9.84-3.46,1.07-9,1.75-12.22-.44-.44-1.17-1-2.48-.58-3.75,5.11.54,11.54,2.92,14.76-2.92,1.61-1,1.12-3.26.83-4.92,1.66-.44,2.34,1.27,3.07,2.19m-7-3.21a7.33,7.33,0,0,1-2.29,5.16c-2.58,1.12-4.29-1.51-6.92-1.31a1.52,1.52,0,0,1-.63-1.22c2.63-1.41,4.77-3.75,7.89-4.33.93.19,2.09.63,1.95,1.7M467.4,210l-.34.58c-1.75-2.24-3-5.31-4.68-7.84-1.27-2-2.29-4.48-4.14-6.14-.58-1.61.49-2.39,1.51-3.31,3.75,5,5.8,10.86,7.65,16.71M458,200.7a22.51,22.51,0,0,1,5.36,13.2l-.44.39c-1.22-.93-1.22-2.78-1.9-4.09a45.68,45.68,0,0,0-3.94-6.62c-.34-1.17.19-1.95.93-2.87m-.44,8.08c1.12,3.26,3.31,5.8,3,9.69-.58.24-.44.54-.88,0a33.36,33.36,0,0,0-3.51-7.7c.15-.78.1-2.14,1.36-2M577.71,45.72c0-3.6.29-7.79-1.85-10.71-7.7-11.1-18.7-18.65-29.9-25.86C530.62,5,513.38,9,498.23,12.22c-6.09,1-12.81,3.6-18.85,1.85-1.12-.73.19-1.56.29-2.34-2.82,0-5.31-1.07-8.08-1.31-4.72-.93-8.86-3.26-14-2.87-3.17.73-6.28,3.46-6.87,6.57a3.21,3.21,0,0,0,1.41,2.48c5.21,6.67,14.42,3.56,21.67,4.33,1.12.54,2.63-.34,3.65.49.34.68,1,1.7-.1,2.14-5.26.58-11.2-.1-16.75.88-12,.93-23.48,4.43-33.75,7.5l5.41,4.19c.83,1-.39,1.41-1,1.9-8.23-2.19-16.17-5-25.13-5-2.68.73-5.8.58-8,2.29-4.48.54-24.94,8.38-28,11.06-1.27,4.19-2.58,8.33-2.92,12.81,1.51.58,3.51-.49,4.72.63-2.19,3.12-6.23,4.24-9,6.92-2,3.51-4.33,8.62-1.51,12.37,2.58-1.22,4.82-3.17,7.11-4.38,7.55-7,18.46-3.6,28.3-4,5.26-3.51,11.35-6.82,18.6-5.94,3.85.58,7.55,2.24,9.3,5.94,1.31,4.63,6.92,5.41,11,6.67,3.65.88,7.21,1.75,11,2.44,5.5.88,13.1,2.92,17.34-2.24a22.31,22.31,0,0,1,13.54-2.34c.54.54,1.66-.29,1.9.58a22.29,22.29,0,0,0,9.11-1.17c7.21-3.9,14.08.73,19.82,4.53a11.68,11.68,0,0,0,6.33-.34c-3.8-1.75-6.53-5.6-8.28-9.4-1.12-2.78-2.87-6.38-1.17-9.5,3-.24,1.17,3.94,3.26,5,.24-.49.83-.83,1-1.41,2.68.63,2,4.29,3.65,6,.88-.15.93-1.22,1.46-1.85,2.68,1.12,3.17,4.43,5.21,6.19l-.1-1.56c.15-.88,1-.93,1.9-.88,1.61.78,2.78,3.17,4.58,3.75l-.1-1.66c3-2.09,3.56,3.12,6.38,2.39L532,74.56c2-1.95,3.12,1.61,5.26,1.61l.15-1c1.61-1,3.8,1.46,5,1.61,0-1,.49-2.19,1.85-1.75,2.24.39,4.58,2.19,7.06.88,2.14-.29,3.94-2.53,6-1.75,0,2.44-3.56,3-5.11,5-9.74,5.6-16.56,13.25-23.72,22.5-1.22.83-.73,3-2.58,2.87-.88-.34-.73-1.12-.78-1.9,3.85-4.58,6.72-9.2,10.62-13.73.49-2.24,3.21-3.75,3.51-6.14a3.3,3.3,0,0,0-2.78-.93c-2.87-1.31-6.72.54-9.16-.1a155.89,155.89,0,0,1-19.87,2.09c-4.63,5-9.89,10.67-15.63,14.56-3.65,1.17-6.57,4.72-10.91,3.8-3.36-1.31-1-5.6-1.9-8.18-4.24,1.22-8.67,1.7-12.08,4.43-7.89,2.14-6-7.89-10.42-11-7.6-3.8-16.22-4.63-24.21-7.4-4.68-.24-10.57-4.33-14,1.12-5.84,2.24-4.38,9.2-9.64,12A4.83,4.83,0,0,1,404.33,92c-1.46-2-3.21-3.94-3.94-6.43-3-3-1.61-8.23-5.21-10.76-5.94,0-12-2.48-17.87,0-5.55,4.38-15.24,7.11-13.78,16.22.73,2.29,3.9.39,4.14,3-1.56,3.41-2.19,7.11-3.46,10.62-1.31,4.29-4.19,9.2-1.22,13.73a11,11,0,0,0,2.92,3.65,12.42,12.42,0,0,1,2-6c3.9-3.7,10.08-4.63,15.15-3.6,4.53,1.12,8.67,3.17,13.15,3.8,2.73,1.61,6.14,1.36,8.72,3,11.64,4,23.09,8.47,34.68,12.47,3,1.61,6.82,1.8,8.91,4.72,6.67,4.92,12.22,11.83,20.36,14.27,13.54,1.36,27.57.83,41.69-.68,7.84-1.36,14.51-5.65,20-11.64l.49,0a30,30,0,0,1,4.43-4.92c6.14-7.74,11.79-15,17.53-23,1.12-1.31,1.56-3.31,3.21-4.19,1.31,6.87-4.43,12.52-7.45,18.22-11.69,19-24.25,36.67-40.13,53.57-.58.15-.44,1.31-1.22,1.12-2.19,4.77-8,3.26-11.93,5.31-4.92,1.51-9.25,3.9-14.37,4.92-.58-.24-1.31-.73-1.8-.49l0,1.07a4.34,4.34,0,0,1-2.58,2.87,73.14,73.14,0,0,1-3.41-7.45h-.19l0,.58h.19c.78,3.65,1.95,7.79,1.66,11.45-1,.44-1.56,2.24-2.87,1.41a25,25,0,0,0-3.7-9.35l1.27,10.76c.29,1.85.58,4,0,5.75-.68.15-1-.63-1.51-1-2.34-5.84-6.19-10.62-9.3-15.93.15-1,.19-2.24,1.12-2.78a37.54,37.54,0,0,1,5.7,8.18h.29c-1.36-5.41-3.56-10.23-5.31-15.44.34-.88,1.12-.73,1.8-.78a67.59,67.59,0,0,1,6.53,5.8c-.34-2.82-2.39-4.77-3.41-7.26-3.6-5.55-10-7.89-15-11.3-7.65-2.34-10.28-9.79-14.85-15.24-1.85-1.46-3.9-3.31-6.28-2.39-3,1.7-4.82,4.53-7,6.92-4.53,6.67-9,14.32-11,22.11-3.7,8,1.22,16.22,2.34,24.06a67.11,67.11,0,0,0,3.56,12.57c1.61,9.89,10.42,14.46,17.29,20.85,1,.63,2.34,1.66,3.36,2.39,2.44,1.51,5.31,2.73,7.26,4.68-1.41,2.44-4.09.29-6.09,1.41,11.49,16.75,23.86,33.41,35.75,50.12,1.51.68,1.22,3.26,3.21,3.46,11-15,21.82-30.39,32.78-45.59h.39c9-13.93,19.77-27.37,29.17-41.3-.54-3.26-3.36-6.19-3.7-9.74-3.8-.1-6.28,3.36-10.13,2.68l0-1.07c3.46-2.53,6.87-5.11,10.52-7.35,3.7-3.41,7.6-5.75,11.45-9.06,4.68-7.26,10.91-15.1,14.71-22.7a123.92,123.92,0,0,0,7.26-12.08c6.19-8.72,10.62-18.8,15.59-28.3-.88-24.16-3.07-48.22-17.29-66.29,0-.78-.49-1.85.29-2.34,2.14-1.46,3.46,1.17,4.77,2.29.63.63.68,1.9,1.56,2,1-4,1.22-8.08,2.09-11.83"/><path class="cls-3" d="M540.41,37.54c.44.88,1.56,1.75,1.22,2.87l-6-.29a7.51,7.51,0,0,0-3.94-6.23c-1.75-.19-3.85-.49-4.82.93-.19,1.85,2.58,1.22,2,3.51-1.46,1.66-2.53-.44-4-.68a2.93,2.93,0,0,0-1,2.19,21.61,21.61,0,0,1-7.89.24c.19-2.24,1.36-4.09,2-6a10.6,10.6,0,0,1,11.3-4.29,18.06,18.06,0,0,1,11.06,7.79"/><path class="cls-3" d="M420.69,72.22c-.93,6.87-9.64,7.4-11.35,14.61-1,1-1.95,2.24-3.51,1.66A17.88,17.88,0,0,1,400.29,72c4.53-3.26,11.15-4.77,16.61-3.21,1.41,1.31,3.46,1.31,3.8,3.46"/><path class="cls-3" d="M504.61,80.45c-.19,3.41-2.87,4.43-5,7-4.48,4.14-10,9.4-16.75,9.84-.93-4.33.88-9.2,0-13.64-.34-.49-1.31-.83-1.75-.1a14,14,0,0,1-4,6.67c-3.94.68-7.5,2.53-10.91,4.38-2.09.88-2.44-1.66-3.56-2.53-.44-3.21-3.6-7-.54-10,3.75-2.92,8.13-5,13.44-4.29,4.58-.44,8.28,5.5,12.32.63,5-4.77,12.52-1.95,16.85,2"/><path class="cls-2" d="M47.93,186.4l-40.24,0L0,262.85H19.48l2.33-23.12H40.58l10.26,23.13H72l-11.55-26C71.08,231,74.72,222.89,75.59,213,76.69,200.43,66,186.4,47.93,186.4Zm-1.47,34H23.76l1.48-14.65c8.46,0,19.31.1,23.17.1,5,0,7.74,3.41,7.74,7C56.15,217.5,52.17,220.35,46.46,220.35Z"/><path class="cls-2" d="M97.22,232.47h38.89l1.73-17.2H99.07c1.63-6.9,5-9.58,9.69-9.58h36.62l1.93-19.29H108.74c-17.66,0-28,10.72-30.67,36.59-2.51,24.5,8.39,39.86,28.1,39.86h33.42l2-19.46c-11.1-.06-29.21-.32-34.81-.35C100.12,243,97.53,240.42,97.22,232.47Z"/><path class="cls-2" d="M188.64,186.41H151.8l-7.72,76.45h40.56C222.33,262.85,228.86,186.41,188.64,186.41Zm8.08,36.5c-1.33,14-6.47,20.57-12.5,20.57h-18.7l3.8-37.7h18.55C193.56,205.78,197.69,212.7,196.72,222.9Z"/><path class="cls-1" d="M264.86,186.41h-15c-16.89,0-27,11.16-29,28.71L216,262.92h19.48l2.44-24.2h32.46l-2.5,24.2h19.48l4.73-45.83C294,198.61,282.11,186.47,264.86,186.41Zm8,28.73-.66,6.39H239.7l.45-4.47c.87-8.54,3.69-11.19,9.74-11.39h14.95C271.29,205.69,273.58,209.06,272.86,215.14Z"/><path class="cls-1" d="M311.74,186.59,325.93,210l15-23.39h24.26L337.71,228l23.82,34.77H338.72l-11.53-18.14-12.08,18.14H290l24.86-36.45L290,186.59Z"/><path class="cls-1" d="M402.41,186.06H384.83c-16.52,0-27.53,14.56-29.76,36.83-2.36,23.51,6.57,40.45,28.31,40.51l15.42,0c18.55,0,27.91-13.11,30.46-38.54C431.83,199.23,419.86,186.06,402.41,186.06Zm7.31,39.19c-1.53,14.69-5.07,18.53-12.15,18.53l-13.68,0c-6.56.14-11-3.45-9.41-18.63,1.41-13.63,5.23-19.54,11.75-19.54H402C409.08,205.64,411.2,210,409.72,225.25Z"/><path class="cls-2" d="M335.73,132.17h-11c-10.29,0-17.15,9.07-18.54,22.95-1.47,14.65,4.09,25.2,17.63,25.24l9.61,0c11.56,0,17.39-8.17,19-24S346.6,132.17,335.73,132.17Zm4.55,24.41c-1,9.15-3.16,11.55-7.57,11.55l-8.52,0c-4.09.09-6.84-2.15-5.86-11.61.88-8.49,3.26-12.17,7.32-12.17h9.8C339.89,144.37,341.2,147.06,340.28,156.58Z"/><path class="cls-3" d="M456.72,242.58H446c-2.58,0-4.09.92-4.8,7-.63,5.4,1.1,6.79,3.67,6.79,2,0,6.63,0,10.46,0l-.71,7.09c-3.91,0-8.3,0-10.23,0-7.39,0-11-5.64-10.24-14.58.7-8.28,4.34-13.38,11.19-13.38h12.1Zm58.15-.11H503.26c-3,0-2.82,3.57-.45,3.57h4.9c11.77,0,11,17.35-.93,17.35l-14,0,.71-7.09,13.55,0c2.73,0,2.7-3.8.42-3.8h-4.65c-11.85,0-11.24-17.12.91-17.12h11.86l-.71,7.09Zm-35.68.1-2.11,20.93H470l2.11-20.93-5,0-2,21H458l2.62-28.15,20.62.14c6.31,0,10.65,4.5,10,11.26l-1.73,16.75h-7.12L484.2,246c.26-2.53-.76-3.45-2.93-3.46Z"/><path class="cls-1" d="M451.52,185.82a14.39,14.39,0,1,1-14.37,14.41A14.39,14.39,0,0,1,451.52,185.82ZM443.94,208a10.64,10.64,0,0,0,15.21,0,11.09,11.09,0,0,0,0-15.59,10.64,10.64,0,0,0-15.21,0,11,11,0,0,0,0,15.59Zm10.13-6.5,4,7.27h-4.89l-3.08-6.1-.75,6.1h-4.17l2.14-17.38h5.22c4.28,0,6.52,2.54,5.26,6.51a5.19,5.19,0,0,1-3.72,3.6Zm-2.95-2.61a2.35,2.35,0,0,0,2.57-1.58c.51-1.45-.1-2.35-1.79-2.35H451l-.48,3.93Z"/><path class="cls-1" d="M83.87,132.17H58.51l-4.85,48.18H65.94l1.47-14.58H79.24l6.46,14.58H99.07l-7.28-16.41c6.68-3.65,9-8.77,9.52-15C102,141,95.27,132.17,83.87,132.17Zm-.93,21.4H68.64l.93-9.24c5.33,0,12.17.06,14.61.06,3.14,0,4.88,2.15,4.88,4.4C89.06,151.77,86.55,153.57,82.95,153.57Z"/><path class="cls-1" d="M24,161.2H48.52l1.09-10.84H25.17c1-4.35,3.13-6,6.11-6H54.36l1.22-12.16H31.27c-11.13,0-17.66,6.76-19.33,23.06-1.58,15.44-2.63,25.13-2.63,25.13H21.67Z"/><path class="cls-2" d="M368.37,161.2h24.51L394,150.36H369.53c1-4.35,3.13-6,6.11-6h23.08l1.22-12.16H375.63c-11.13,0-17.66,6.76-19.33,23.06-1.58,15.44-2.63,25.13-2.63,25.13H366Z"/><path class="cls-1" d="M130.71,161.2h24.51l1.09-10.84H131.87c1-4.35,3.13-6,6.11-6h23.08l1.22-12.16H138c-11.13,0-17.66,6.76-19.33,23.06-1.58,15.44,5.29,25.13,17.71,25.13h21.07l1.26-12.27c-7,0-18.41-.2-21.94-.22C132.53,167.86,130.9,166.21,130.71,161.2Z"/><path class="cls-1" d="M238.45,132.17H215.23l-4.86,48.18h25.56C259.68,180.35,263.8,132.17,238.45,132.17Zm5.09,23c-.84,8.85-4.08,13-7.88,13H223.87l2.4-23.76H238C241.55,144.38,244.15,148.74,243.54,155.17Z"/><path class="cls-1" d="M294.17,144.36h-20c-5.12,0-4.86,6.13-.77,6.13h8.43c20.25,0,18.84,29.84-1.6,29.84l-24.1,0,1.23-12.19,23.31,0c4.69,0,4.64-6.53.73-6.53h-8c-20.38,0-19.34-29.45,1.56-29.45h20.4l-1.23,12.19Z"/><path class="cls-1" d="M211.54,132.17H199.35l-3.1,30.72-17.6-29a3.57,3.57,0,0,0-3.06-1.72h-4.19a6.62,6.62,0,0,0-6.58,6l-4.26,42.23h12.26l3.07-30.89,17.66,29.17a3.57,3.57,0,0,0,3.06,1.72h4.26a6.61,6.61,0,0,0,6.57-6Z"/><path class="cls-1" d="M118.41,132.17H106.22l-4.86,48.18h12.26Z"/></g></g></svg>