<svg xmlns="http://www.w3.org/2000/svg" xmlns:xlink="http://www.w3.org/1999/xlink" width="261" height="259" viewBox="0 0 261 259">
  <defs>
    <clipPath id="548aefbe-b9ba-4565-b9ff-9ec09cb54c1a">
      <circle cx="133" cy="131" r="128" fill="none"/>
    </clipPath>
  </defs>
  <title>rextaler_back_icon</title>
  <g id="ec69868a-1275-4586-8cfe-07c8079e1418" data-name="Ebene 2">
    <g id="e88f0c7a-9c19-4d96-aff6-5521c3d7e26a" data-name="Ebene 1">
      <g>
        <g>
          <circle cx="133" cy="131" r="128" fill="#fdc422"/>
          <circle cx="133" cy="131" r="128" fill="#f7931e"/>
          <g clip-path="url(#548aefbe-b9ba-4565-b9ff-9ec09cb54c1a)">
            <circle cx="128" cy="128" r="128" fill="#fdc422"/>
          </g>
          <circle cx="133" cy="131" r="120.43" fill="#fdc422"/>
          <circle cx="133" cy="131" r="120.43" fill="#f7931e"/>
          <circle cx="136.25" cy="133.25" r="119.67" fill="#ffcb48"/>
        </g>
        <path d="M194.89,87.76c0-2.1.16-4.48-1.06-6.18-4.49-6.48-10.91-10.86-17.44-15.07-8.94-2.43-19-.09-27.82,1.79-3.55.58-7.45,2.09-11,1.08-.64-.42.12-.92.16-1.37-1.65,0-3.1-.63-4.7-.78-2.76-.54-5.16-1.89-8.16-1.68a5.4,5.4,0,0,0-4,3.84,1.89,1.89,0,0,0,.81,1.44c3,3.88,8.41,2.06,12.64,2.53.64.31,1.52-.19,2.11.29.19.39.56,1,0,1.25-3.05.33-6.54-.06-9.75.51-7,.53-13.68,2.58-19.67,4.37l3.14,2.45c.49.6-.24.81-.57,1.11-4.79-1.29-9.42-2.92-14.65-2.94-1.57.42-3.39.35-4.65,1.32-2.6.36-14.52,4.9-16.32,6.47a35.66,35.66,0,0,0-1.71,7.48c.87.35,2-.27,2.75.37-1.27,1.83-3.62,2.46-5.25,4-1.2,2.05-2.53,5-.88,7.21,1.5-.7.31,1.58,1.15,6.88.41,1.34,2.28.22,2.42,1.75-.92,2-1.26,4.16-2,6.19-.78,2.48-2.45,5.36-.72,8,.44.77,1.15,1.16,1.7,2.13s34.34,17.6,33.1,19c-2.64,3.89-5.25,8.34-6.38,12.89-2.15,4.66.72,9.45,1.35,14a38.62,38.62,0,0,0,2.09,7.34c.92,5.75,6.07,8.44,10.07,12.15.59.37,1.36,1,1.95,1.38a24.09,24.09,0,0,1,4.23,2.74c-.83,1.41-2.38.18-3.54.81C121,212.3,128.17,222,135.1,231.74c.87.41.72,1.9,1.86,2,6.43-8.75,12.72-17.71,19.09-26.57h.22c5.27-8.12,11.51-15.95,17-24.07-.33-1.92-2-3.6-2.17-5.69-2.22-.06-3.65,2-5.89,1.56l0-.63c2-1.47,4-3,6.14-4.3,2.17-2,4.43-3.36,6.66-5.29,2.74-4.24,6.37-8.8,8.58-13.24a74.9,74.9,0,0,0,4.24-7c3.6-5.08,6.2-11,9.09-16.5-.5-14.07-1.8-28.1-10.07-38.64,0-.46-.28-1.07.16-1.37,1.26-.86,2,.69,2.8,1.33.36.38.4,1.12.91,1.21.57-2.13.68-4.47,1.19-6.66Z" fill="#f15a24" stroke="#f15a24" stroke-width="3"/>
        <path d="M190.89,90.4c0-2.1.16-4.48-1.06-6.18-4.49-6.48-10.91-10.86-17.44-15.07-8.94-2.43-19-.09-27.82,1.79-3.55.58-7.45,2.09-11,1.08-.64-.42.12-.92.16-1.37-1.65,0-3.1-.63-4.7-.78-2.76-.54-5.18-3.59-8.18-3.37-1.85.43-4.18,1.34-4.54,3.17.08.51.84,3.55,1.37,3.8,3,3.88,8.41,2.06,12.64,2.53.64.31,1.52-.19,2.11.29.19.39.56,1,0,1.25-3.05.33-6.54-.06-9.75.51-7,.53-8,4.86-14,6.65l-2.54.18c.49.6-.24.81-.57,1.11-4.79-1.29-9.42-2.92-14.65-2.94-1.57.42-3.39.35-4.65,1.32-2.6.36-15.8,3.49-17.59,5.06a39.92,39.92,0,0,0-1.83,7.91c.87.35-1.47.69-.76,1.33-1.27,1.83-.38.69-2,2.25-1.2,2.05-.88,6.81.77,9,1.5-.7.31,1.58,1.15,6.88.41,1.34.86-.44,1,1.08-.92,2-1.25,4.92-2,7-.78,2.48-1,5.25.69,7.89.44.77,1.15,1.16,1.7,2.13s31.68,17.44,30.44,18.81c-2.64,3.89-3.71,7.95-4.84,12.5-2.15,4.66,1.83,10,2.46,14.59a38.62,38.62,0,0,0,2.09,7.34c.92,5.75,6.07,8.44,10.07,12.15.59.37,1.36,1,1.95,1.38,1.41.89,0,.74,1.16,1.88-.83,1.41.7,1-.47,1.67,6.71,9.77,13.92,19.46,20.84,29.22.87.41.72,1.9,1.86,2,6.43-8.75,12.72-17.71,19.09-26.57h.22c5.27-8.12,11.51-15.95,17-24.07-.33-1.92-2-3.6-2.17-5.69-2.22-.06-3.65,2-5.89,1.56l0-.63c2-1.47,1.09-3.68,3.24-5,2.17-2,6.34-3.9,8.57-5.83,2.74-4.24,7.36-7.57,9.57-12a74.9,74.9,0,0,0,4.24-7c3.6-5.08,6.2-11,9.09-16.5-.5-14.07-1.8-28.1-10.07-38.64,0-.46-.28-1.07.16-1.37,1.26-.86,2,.69,2.8,1.33.36.38-2.89-3.35-2.37-3.26.57-2.13,4,0,4.48-2.18Z" fill="#fdc422"/>
        <path d="M192.89,89.4c0-2.1.16-4.48-1.06-6.18-4.49-6.48-10.91-10.86-17.44-15.07-8.94-2.43-19-.09-27.82,1.79-3.55.58-7.45,2.09-11,1.08-.64-.42.12-.92.16-1.37-1.65,0-3.1-.63-4.7-.78-2.76-.54-5.18-3.59-8.18-3.37-1.85.43-4.18,1.34-4.54,3.17.08.51.84,3.55,1.37,3.8,3,3.88,8.41,2.06,12.64,2.53.64.31,1.52-.19,2.11.29.19.39.56,1,0,1.25-3.05.33-6.54-.06-9.75.51-7,.53-8,4.86-14,6.65l-2.54.18c.49.6-.24.81-.57,1.11-4.79-1.29-9.42-2.92-14.65-2.94-1.57.42-3.39.35-4.65,1.32-2.6.36-15.8,3.49-17.59,5.06a39.92,39.92,0,0,0-1.83,7.91c.87.35-1.47.69-.76,1.33-1.27,1.83-.38.69-2,2.25-1.2,2.05-.88,6.81.77,9,1.5-.7.31,1.58,1.15,6.88.41,1.34.86-.44,1,1.08-.92,2-1.25,4.92-2,7-.78,2.48-1,5.25.69,7.89.44.77,1.15,1.16,1.7,2.13s31.68,17.44,30.44,18.81c-2.64,3.89-3.71,7.95-4.84,12.5-2.15,4.66,1.83,10,2.46,14.59a38.62,38.62,0,0,0,2.09,7.34c.92,5.75,6.07,8.44,10.07,12.15.59.37,1.36,1,1.95,1.38,1.41.89,0,.74,1.16,1.88-.83,1.41.7,1-.47,1.67,6.71,9.77,13.92,19.46,20.84,29.22.87.41.72,1.9,1.86,2,6.43-8.75,12.72-17.71,19.09-26.57h.22c5.27-8.12,11.51-15.95,17-24.07-.33-1.92-2-3.6-2.17-5.69-2.22-.06-3.65,2-5.89,1.56l0-.63c2-1.47,1.09-3.68,3.24-5,2.17-2,6.34-3.9,8.57-5.83,2.74-4.24,7.36-7.57,9.57-12a74.9,74.9,0,0,0,4.24-7c3.6-5.08,6.2-11,9.09-16.5-.5-14.07-1.8-28.1-10.07-38.64,0-.46-.28-1.07.16-1.37,1.26-.86,2,.69,2.8,1.33.36.38-2.89-3.35-2.37-3.26.57-2.13,4,0,4.48-2.18Z" fill="#f15a24"/>
        <g>
          <path d="M188.41,87.84a9.45,9.45,0,0,1-3-.58c-2.19-.57-4.68-.38-6.77-1.18-8.76-1.31-19.14-.83-27.79.07l-.24-.33c-.5.25-1,1.24-1.71.94l-.49-.6c-.56.2-.63,1.06-1.48,1a21.19,21.19,0,0,0-3.19-4.55,1.52,1.52,0,0,1,.68-1.06c1.25,0,1.89,1.32,2.83,2-.32-1.8-1.83-3.43-2.59-5,.6-.54,1.37-1,2-.11a9.55,9.55,0,0,0,2.26,3c.51-1.11-.62-2.13-.9-3.19-.25-.39-.72-.65-.68-1.16-1-.52-1.23-1.81-2.39-2.15a1.5,1.5,0,0,1-.4-1.17c1.05-.51,2.34.11,3.48.16,6.33,1.43,13.8-.2,20.16-1.39,6.94-1,10.68,5.3,14.87,9.52,1.26,1.24,2.22,3.35,4.19,4,.44.72,1.19,1,1.18,1.93m-45.36-4.24c.86,1.26,2.06,2.34,2.3,3.86-.37.42-.66.38-1.13.17a15.17,15.17,0,0,0-3.36-3.29c-.25-.5.3-.81.41-1,.6-.43,1.25,0,1.77.25m-1.71,3.33c.43.49,1,.91.83,1.66a2.15,2.15,0,0,1-.84.33,22.87,22.87,0,0,0-3.43-3.58c-.29-.16,0-.57.25-.64,1.47-.13,2.17,1.36,3.18,2.22m-3.55.52c.14.56.85,1,.48,1.62a1.71,1.71,0,0,1-1.41-1c-1-.57-1.56-1.57-2.6-1.85.25-.52.94-.56,1.56-.53Zm-4.06.61c0,.4-.42.7-.72.38-.53-.37-1.68-.54-1.44-1.52,1.06-.34,1.29.78,2.17,1.14m-27.8.08c.53,2.47-1.95,4.08-3.4,5.75-2,.62-5.23,1-7.12-.26a3.28,3.28,0,0,1-.34-2.2c3,.3,6.74,1.7,8.61-1.7.94-.56.64-1.91.48-2.87,1-.28,1.34.73,1.77,1.27m-4.08-1.89a4.35,4.35,0,0,1-1.32,3c-1.5.65-2.49-.89-4-.76a.9.9,0,0,1-.38-.72c1.55-.82,2.78-2.2,4.59-2.51.51.09,1.21.33,1.13,1m28.75,97.36-.21.35c-1-1.31-1.75-3.09-2.74-4.58a16.51,16.51,0,0,0-2.4-3.57c-.33-.95.27-1.38.87-1.92a31.53,31.53,0,0,1,4.48,9.72m-5.46-5.46a13.11,13.11,0,0,1,3.12,7.68l-.27.24c-.71-.53-.71-1.61-1.09-2.39a26.25,26.25,0,0,0-2.3-3.86,1.72,1.72,0,0,1,.54-1.68m-.27,4.73c.67,1.9,1.94,3.37,1.77,5.65-.34.13-.27.3-.51,0a18.87,18.87,0,0,0-2.05-4.5c.09-.46,0-1.25.79-1.18m70-95c0-2.1.16-4.55-1.06-6.26-4.49-6.48-10.91-10.86-17.44-15.07-8.94-2.43-19-.09-27.82,1.79-3.55.58-7.45,2.09-11,1.08-.64-.42.12-.92.16-1.37-1.65,0-3.1-.63-4.7-.78-2.76-.54-5.16-1.89-8.16-1.68a5.4,5.4,0,0,0-4,3.84,1.89,1.89,0,0,0,.81,1.44c3,3.88,8.41,2.06,12.64,2.53.64.31,1.52-.19,2.11.29.19.39.56,1,0,1.25-3.05.33-6.54-.06-9.75.51-7,.53-13.68,2.58-19.67,4.37l3.14,2.45c.49.6-.24.81-.57,1.11-4.79-1.29-9.42-2.92-14.65-2.94-1.57.42-3.39.35-4.65,1.32-2.6.36-14.52,4.9-16.32,6.47a35.66,35.66,0,0,0-1.71,7.48c.87.35,2-.27,2.75.37-1.27,1.83-3.62,2.46-5.25,4-1.2,2.05-2.53,5-.88,7.21,1.5-.7,2.81-1.85,4.13-2.54,4.39-4.09,10.75-2.09,16.48-2.33,3.08-2,6.61-4,10.85-3.46,2.23.34,4.39,1.31,5.41,3.47.76,2.69,4,3.14,6.39,3.88,2.13.51,4.2,1,6.39,1.43,3.21.52,7.65,1.71,10.11-1.32a13.12,13.12,0,0,1,7.89-1.37c.3.32,1-.16,1.1.34a13,13,0,0,0,5.31-.67c4.2-2.27,8.2.42,11.56,2.64a6.76,6.76,0,0,0,3.68-.19c-2.21-1-3.81-3.27-4.83-5.49-.65-1.62-1.67-3.72-.68-5.54,1.75-.15.69,2.3,1.91,2.92.15-.29.49-.48.58-.83,1.55.37,1.15,2.49,2.12,3.53.51-.08.53-.71.86-1.07,1.57.66,1.84,2.58,3,3.6l0-.91c.09-.52.6-.54,1.11-.51.93.46,1.63,1.85,2.67,2.19l0-1c1.75-1.23,2.08,1.82,3.71,1.4l-.33-.84c1.19-1.14,1.81.93,3.06.92l.08-.57c.94-.56,2.21.85,2.89.93,0-.57.28-1.27,1.09-1,1.32.22,2.68,1.28,4.12.52,1.24-.18,2.31-1.48,3.53-1,0,1.42-2.07,1.75-3,2.88-5.69,3.25-9.66,7.72-13.82,13.11-.71.49-.42,1.73-1.5,1.67-.52-.2-.43-.66-.45-1.11,2.25-2.67,3.93-5.37,6.18-8,.27-1.32,1.88-2.2,2-3.57a1.87,1.87,0,0,0-1.62-.54c-1.69-.77-3.91.32-5.35-.06A92.37,92.37,0,0,1,153.86,110a56,56,0,0,1-9.11,8.49c-2.12.68-3.84,2.76-6.36,2.21-2-.75-.57-3.27-1.1-4.78-2.46.7-5.06,1-7,2.58-4.6,1.26-3.48-4.6-6.07-6.4-4.44-2.21-9.46-2.69-14.1-4.33-2.74-.14-6.16-2.52-8.15.65-3.4,1.31-2.56,5.36-5.61,7a2.8,2.8,0,0,1-2.54-.72,12.8,12.8,0,0,1-2.3-3.75c-1.74-1.73-.93-4.78-3.05-6.26-3.47,0-7-1.46-10.4,0-3.22,2.55-8.88,4.15-8,9.45.41,1.34,2.28.22,2.42,1.75-.92,2-1.26,4.16-2,6.19-.78,2.48-2.45,5.36-.72,8a6.54,6.54,0,0,0,1.7,2.13,7.45,7.45,0,0,1,1.18-3.53c2.28-2.16,5.89-2.69,8.82-2.1,2.65.65,5,1.84,7.68,2.21,1.58.94,3.57.78,5.09,1.72,6.77,2.33,13.44,4.93,20.22,7.25,1.75.93,4,1,5.2,2.74,3.9,2.87,7.12,6.91,11.86,8.31a118.82,118.82,0,0,0,24.31-.41,20.47,20.47,0,0,0,11.64-6.8l.28,0a17.79,17.79,0,0,1,2.58-2.86c3.58-4.5,6.88-8.71,10.22-13.43.64-.77.92-1.92,1.86-2.43.77,4-2.58,7.3-4.34,10.63a187.85,187.85,0,0,1-23.39,31.23c-.34.07-.24.75-.7.66-1.28,2.79-4.68,1.89-6.95,3.09-2.86.89-5.4,2.27-8.38,2.88-.35-.15-.76-.42-1-.29l0,.63a2.47,2.47,0,0,1-1.5,1.67,42,42,0,0,1-2-4.33H134l0,.34h.11c.45,2.14,1.15,4.55,1,6.66-.56.25-.9,1.3-1.66.83a14.39,14.39,0,0,0-2.16-5.46l.72,6.27a7.39,7.39,0,0,1,0,3.35c-.4.08-.59-.37-.88-.58-1.37-3.4-3.62-6.18-5.43-9.27.08-.57.1-1.31.65-1.62a21.58,21.58,0,0,1,3.32,4.77h.17c-.79-3.14-2.07-6-3.08-9,.2-.52.66-.43,1.06-.45a43.58,43.58,0,0,1,3.81,3.38c-.2-1.64-1.39-2.77-2-4.22-2.1-3.24-5.81-4.58-8.76-6.59-4.44-1.36-6-5.72-8.65-8.88-1.07-.86-2.26-1.93-3.65-1.4-1.77,1-2.82,2.65-4.06,4-2.64,3.89-5.25,8.34-6.38,12.89-2.15,4.66.72,9.45,1.35,14a38.62,38.62,0,0,0,2.09,7.34c.92,5.75,6.07,8.44,10.07,12.15.59.37,1.36,1,1.95,1.38a24.09,24.09,0,0,1,4.23,2.74c-.83,1.41-2.38.18-3.54.81C121,212.3,128.17,222,135.1,231.74c.87.41.72,1.9,1.86,2,6.43-8.75,12.72-17.71,19.09-26.57h.22c5.27-8.12,11.51-15.95,17-24.07-.33-1.92-2-3.6-2.17-5.69-2.22-.06-3.65,2-5.89,1.56l0-.63c2-1.47,4-3,6.14-4.3,2.17-2,4.43-3.36,6.66-5.29,2.74-4.24,6.37-8.8,8.58-13.24a74.9,74.9,0,0,0,4.24-7c3.6-5.08,6.2-11,9.09-16.5-.5-14.07-1.8-28.1-10.07-38.64,0-.46-.28-1.07.16-1.37,1.26-.86,2,.69,2.8,1.33.36.38.4,1.12.91,1.21.57-2.13.68-4.47,1.19-6.66" fill="#f7931e"/>
          <path d="M173.15,83.05c.25.5.9,1,.71,1.67l-3.48-.16a4.38,4.38,0,0,0-2.29-3.63c-1-.12-2.23-.28-2.81.54-.12,1.09,1.51.72,1.18,2-.86,1-1.49-.26-2.35-.39a1.69,1.69,0,0,0-.56,1.28,12.4,12.4,0,0,1-4.6.13A14.24,14.24,0,0,1,160.14,81a6.16,6.16,0,0,1,6.58-2.5,10.72,10.72,0,0,1,6.43,4.55" fill="#fff"/>
          <path d="M103.37,103.27c-.53,4-5.63,4.33-6.61,8.53-.59.6-1.13,1.31-2.05,1a10.4,10.4,0,0,1-3.23-9.61,11.84,11.84,0,0,1,9.68-1.87c.83.75,2,.75,2.21,2" fill="#fff"/>
          <path d="M152.28,108.07c-.12,2-1.69,2.59-2.91,4.07-2.6,2.41-5.86,5.47-9.76,5.74-.53-2.53.52-5.37,0-8-.19-.27-.76-.47-1-.06a8.08,8.08,0,0,1-2.36,3.88,21.17,21.17,0,0,0-6.35,2.55c-1.22.52-1.41-1-2.07-1.49-.27-1.86-2.09-4.1-.3-5.84a10.26,10.26,0,0,1,7.83-2.51c2.66-.25,4.83,3.22,7.18.37,2.87-2.7,7.28-1.06,9.79,1.26" fill="#fff"/>
        </g>
      </g>
    </g>
  </g>
</svg>
