<?xml version="1.0" encoding="utf-8"?>
<!-- Generator: Adobe Illustrator 21.0.0, SVG Export Plug-In . SVG Version: 6.00 Build 0)  -->
<!DOCTYPE svg PUBLIC "-//W3C//DTD SVG 1.1//EN" "http://www.w3.org/Graphics/SVG/1.1/DTD/svg11.dtd">
<svg version="1.1" id="TREX" xmlns="http://www.w3.org/2000/svg" xmlns:xlink="http://www.w3.org/1999/xlink" x="0px" y="0px"
	 width="51.5px" height="64.87px" viewBox="0 0 51.5 64.87" enable-background="new 0 0 51.5 64.87" xml:space="preserve">
<g>
	<g>
		<path fill="#394254" d="M26.8,63.58c-0.05,0-0.1,0-0.15-0.01c-0.68-0.07-1.2-0.44-1.55-1.12c-0.07-0.06-0.13-0.14-0.19-0.21
			c-0.9-1.27-1.82-2.54-2.73-3.8c-1.54-2.13-3.13-4.33-4.63-6.51c-0.23-0.33-0.31-0.74-0.24-1.14c-0.09-0.06-0.17-0.13-0.25-0.17
			c-0.08-0.05-0.16-0.11-0.23-0.17c-0.3-0.28-0.63-0.54-0.95-0.8c-1.18-0.96-2.63-2.15-3.03-4.15c-0.33-0.83-0.55-1.69-0.76-2.71
			c-0.07-0.48-0.19-0.92-0.32-1.38c-0.35-1.23-0.78-2.76-0.11-4.36c0.51-1.92,1.62-3.71,2.43-4.9c0.04-0.06,0.08-0.11,0.13-0.16
			c0.09-0.1,0.18-0.21,0.28-0.32c0.37-0.44,0.82-0.99,1.53-1.39c0.32-0.18,0.7-0.24,1.07-0.16c0.1,0.02,0.2,0.03,0.3,0.03
			c0.33-0.01,0.66-0.19,0.96-0.43c-0.04-0.02-0.08-0.04-0.12-0.06c-1.18-0.41-2.35-0.84-3.53-1.27c-1.16-0.43-2.33-0.85-3.5-1.26
			c-0.11-0.04-0.21-0.08-0.3-0.14c-0.06-0.04-0.28-0.08-0.43-0.12c-0.31-0.07-0.67-0.15-1.05-0.33c-0.58-0.11-1.1-0.29-1.6-0.46
			c-0.32-0.11-0.65-0.22-0.99-0.31c-0.55-0.11-1.19,0-1.58,0.27c-0.03,0.08-0.06,0.22-0.09,0.45c-0.07,0.51-0.39,0.95-0.86,1.17
			c-0.47,0.22-1.01,0.18-1.45-0.1c-0.4-0.26-0.74-0.66-1.09-1.27c-0.86-1.31-0.34-2.73-0.02-3.58c0.05-0.15,0.11-0.29,0.15-0.43
			c0.12-0.32,0.19-0.59,0.26-0.85c0.02-0.08,0.05-0.17,0.07-0.26c-0.26-0.25-0.4-0.54-0.48-0.79c-0.02-0.07-0.04-0.14-0.05-0.21
			c-0.09-0.58-0.05-1.09,0.08-1.54c-0.07-0.06-0.14-0.14-0.2-0.22c-0.84-1.11-0.77-2.52,0.21-4.2c0.07-0.12,0.16-0.23,0.26-0.32
			c0.14-0.13,0.28-0.25,0.42-0.35c-0.01-0.08-0.01-0.15,0-0.23c0.08-1.01,0.34-1.89,0.6-2.74l0.06-0.21
			c0.08-0.27,0.24-0.51,0.45-0.7c0.86-0.75,4.69-2.19,6.15-2.56c0.51-0.29,1.04-0.37,1.44-0.43c0.13-0.02,0.27-0.04,0.4-0.07
			c0.13-0.03,0.27-0.07,0.39-0.05c1.09,0,2.08,0.17,3.03,0.4c0.19-0.26,0.46-0.46,0.79-0.56l0.23-0.07
			c1.22-0.36,2.53-0.75,3.91-1.06c-0.13-0.22-0.24-0.5-0.3-0.85c-0.03-0.18-0.03-0.35,0.01-0.53c0.23-1.19,1.28-2.23,2.54-2.53
			c0.08-0.02,0.15-0.03,0.23-0.04c0.98-0.07,1.8,0.19,2.46,0.39c0.25,0.08,0.5,0.16,0.75,0.21c0.28,0.03,0.56,0.09,0.83,0.15
			c0.24,0.06,0.45,0.1,0.62,0.11c0.41,0.01,0.8,0.18,1.08,0.49c0.03,0.03,0.06,0.06,0.08,0.1c0.4-0.04,0.84-0.14,1.3-0.24
			c0.37-0.08,0.73-0.16,1.08-0.22l0.32-0.07c3.16-0.68,6.75-1.44,10.11-0.53c0.07,0.02,0.13,0.04,0.19,0.07
			c3.52,1.5,6.19,3.88,6.98,6.21c0.44,1.31,0.45,2.54,0.45,2.68c0,0.98-0.17,1.95-0.51,2.87c-0.04,0.12-0.1,0.23-0.17,0.33
			c1.97,3.72,2.3,8.09,2.45,12.3c0.01,0.26-0.05,0.52-0.17,0.75c-0.25,0.48-0.49,0.96-0.74,1.45c-0.75,1.49-1.52,3.04-2.51,4.45
			c-0.43,0.83-0.96,1.67-1.48,2.46c-0.56,1.11-1.32,2.19-2.05,3.24c-0.35,0.5-0.7,1-1.01,1.48c-0.08,0.12-0.17,0.23-0.28,0.32
			c-0.39,0.34-0.78,0.63-1.18,0.93c-0.27,0.2-0.53,0.4-0.78,0.6c0.02,0.07,0.03,0.15,0.04,0.23c0.01,0.11,0.14,0.36,0.24,0.56
			c0.19,0.36,0.42,0.81,0.51,1.35c0.06,0.38-0.02,0.77-0.24,1.09c-0.89,1.31-1.83,2.61-2.75,3.87c-1.1,1.5-2.23,3.05-3.23,4.59
			c-0.09,0.14-0.21,0.27-0.34,0.37c-0.68,0.95-1.36,1.9-2.04,2.85c-1.49,2.08-2.97,4.17-4.48,6.22
			C27.72,63.35,27.27,63.58,26.8,63.58z M25.5,62.73C25.5,62.73,25.51,62.73,25.5,62.73C25.51,62.73,25.5,62.73,25.5,62.73z
			 M19.48,30.14L19.48,30.14L19.48,30.14z"/>
	</g>
	<path fill="#3B9AD5" d="M44.92,10.67c-0.32,0-0.73-0.08-1.05-0.21c-0.77-0.2-1.65-0.13-2.39-0.42c-3.09-0.46-6.74-0.29-9.79,0.03
		l-0.09-0.12c-0.17,0.09-0.36,0.44-0.6,0.33l-0.17-0.21c-0.2,0.07-0.22,0.37-0.52,0.35c-0.31-0.56-0.68-1.15-1.12-1.6
		c0.01-0.16,0.12-0.29,0.24-0.37c0.44,0.02,0.66,0.47,1,0.69c-0.11-0.63-0.64-1.21-0.91-1.77c0.21-0.19,0.48-0.35,0.7-0.04
		c0.2,0.37,0.46,0.78,0.79,1.04c0.18-0.39-0.22-0.75-0.32-1.12c-0.09-0.14-0.25-0.23-0.24-0.41c-0.35-0.18-0.43-0.64-0.84-0.76
		c-0.1-0.11-0.15-0.25-0.14-0.41c0.37-0.18,0.82,0.04,1.23,0.06c2.23,0.5,4.86-0.07,7.1-0.49c2.44-0.37,3.76,1.87,5.24,3.35
		c0.44,0.44,0.78,1.18,1.48,1.41C44.66,10.24,44.93,10.33,44.92,10.67 M28.94,9.18c0.3,0.44,0.72,0.82,0.81,1.36
		c-0.13,0.15-0.23,0.13-0.4,0.06c-0.28-0.47-0.74-0.78-1.18-1.16c-0.09-0.18,0.11-0.29,0.14-0.35C28.53,8.94,28.76,9.1,28.94,9.18
		 M28.34,10.35c0.15,0.17,0.34,0.32,0.29,0.58c-0.08,0.06-0.2,0.09-0.29,0.12c-0.35-0.48-0.79-0.88-1.21-1.26
		c-0.1-0.05-0.01-0.2,0.09-0.22C27.74,9.52,27.99,10.05,28.34,10.35 M27.09,10.53c0.05,0.2,0.3,0.34,0.17,0.57
		c-0.24-0.05-0.39-0.12-0.5-0.33c-0.35-0.2-0.55-0.55-0.91-0.65c0.09-0.18,0.33-0.2,0.55-0.19L27.09,10.53z M25.66,10.75
		c0.01,0.14-0.15,0.25-0.25,0.13c-0.19-0.13-0.59-0.19-0.51-0.53C25.28,10.23,25.36,10.62,25.66,10.75 M15.87,10.77
		c0.19,0.87-0.69,1.44-1.2,2.02c-0.71,0.22-1.84,0.36-2.51-0.09c-0.09-0.24-0.21-0.51-0.12-0.77c1.05,0.11,2.37,0.6,3.03-0.6
		c0.33-0.2,0.23-0.67,0.17-1.01C15.58,10.23,15.72,10.58,15.87,10.77 M14.43,10.11c-0.02,0.4-0.16,0.77-0.47,1.06
		c-0.53,0.23-0.88-0.31-1.42-0.27c-0.08-0.06-0.13-0.15-0.13-0.25c0.54-0.29,0.98-0.77,1.62-0.89C14.22,9.8,14.46,9.89,14.43,10.11
		 M24.56,44.41l-0.07,0.12c-0.36-0.46-0.62-1.09-0.96-1.61c-0.26-0.41-0.47-0.92-0.85-1.26c-0.12-0.33,0.1-0.49,0.31-0.68
		C23.76,42.01,24.18,43.21,24.56,44.41 M22.64,42.49c0.64,0.77,1.05,1.71,1.1,2.71l-0.09,0.08c-0.25-0.19-0.25-0.57-0.39-0.84
		c-0.22-0.47-0.51-0.93-0.81-1.36C22.38,42.84,22.49,42.68,22.64,42.49 M22.55,44.15c0.23,0.67,0.68,1.19,0.62,1.99
		c-0.12,0.05-0.09,0.11-0.18,0.01c-0.15-0.57-0.44-1.08-0.72-1.58C22.3,44.41,22.29,44.13,22.55,44.15 M47.21,10.67
		c0-0.74,0.06-1.6-0.38-2.2c-1.58-2.28-3.84-3.83-6.14-5.31C37.54,2.3,34,3.13,30.89,3.79c-1.25,0.21-2.63,0.74-3.87,0.38
		c-0.23-0.15,0.04-0.32,0.06-0.48c-0.58-0.01-1.09-0.22-1.66-0.27c-0.97-0.19-1.82-0.67-2.87-0.59c-0.65,0.15-1.29,0.71-1.41,1.35
		c0.03,0.18,0.1,0.42,0.29,0.51c1.07,1.37,2.96,0.73,4.45,0.89c0.23,0.11,0.54-0.07,0.75,0.1c0.07,0.14,0.2,0.35-0.02,0.44
		c-1.08,0.12-2.3-0.02-3.44,0.18c-2.47,0.19-4.82,0.91-6.93,1.54l1.11,0.86c0.17,0.21-0.08,0.29-0.2,0.39
		c-1.69-0.45-3.32-1.03-5.16-1.03c-0.55,0.15-1.19,0.12-1.64,0.47C9.43,8.64,5.23,10.25,4.6,10.8c-0.26,0.86-0.53,1.71-0.6,2.63
		c0.31,0.12,0.72-0.1,0.97,0.13c-0.45,0.64-1.28,0.87-1.85,1.42c-0.42,0.72-0.89,1.77-0.31,2.54c0.53-0.25,0.99-0.65,1.46-0.9
		c1.55-1.44,3.79-0.74,5.81-0.82c1.08-0.72,2.33-1.4,3.82-1.22c0.79,0.12,1.55,0.46,1.91,1.22c0.27,0.95,1.42,1.11,2.25,1.37
		c0.75,0.18,1.48,0.36,2.25,0.5c1.13,0.18,2.69,0.6,3.56-0.46c0.8-0.42,1.85-0.64,2.78-0.48c0.11,0.11,0.34-0.06,0.39,0.12
		c0.58,0.05,1.32-0.03,1.87-0.24c1.48-0.8,2.89,0.15,4.07,0.93c0.39,0.1,0.92,0.07,1.3-0.07c-0.78-0.36-1.34-1.15-1.7-1.93
		c-0.23-0.57-0.59-1.31-0.24-1.95c0.62-0.05,0.24,0.81,0.67,1.03c0.05-0.1,0.17-0.17,0.21-0.29c0.55,0.13,0.41,0.88,0.75,1.24
		c0.18-0.03,0.19-0.25,0.3-0.38c0.55,0.23,0.65,0.91,1.07,1.27l-0.02-0.32c0.03-0.18,0.21-0.19,0.39-0.18
		c0.33,0.16,0.57,0.65,0.94,0.77l-0.02-0.34c0.62-0.43,0.73,0.64,1.31,0.49l-0.12-0.29c0.42-0.4,0.64,0.33,1.08,0.33l0.03-0.2
		c0.33-0.2,0.78,0.3,1.02,0.33c-0.01-0.2,0.1-0.45,0.38-0.36c0.46,0.08,0.94,0.45,1.45,0.18c0.44-0.06,0.81-0.52,1.24-0.36
		c-0.01,0.5-0.73,0.62-1.05,1.02c-2,1.15-3.4,2.72-4.87,4.62c-0.25,0.17-0.15,0.61-0.53,0.59c-0.18-0.07-0.15-0.23-0.16-0.39
		c0.79-0.94,1.38-1.89,2.18-2.82c0.1-0.46,0.66-0.77,0.72-1.26c-0.13-0.13-0.33-0.22-0.57-0.19c-0.59-0.27-1.38,0.11-1.88-0.02
		c-1.33,0.21-2.88,0.41-4.08,0.43c-0.95,1.03-2.03,2.19-3.21,2.99c-0.75,0.24-1.35,0.97-2.24,0.78c-0.69-0.27-0.2-1.15-0.39-1.68
		c-0.87,0.25-1.78,0.35-2.48,0.91c-1.62,0.44-1.23-1.62-2.14-2.25c-1.56-0.78-3.33-0.95-4.97-1.52c-0.96-0.05-2.17-0.89-2.87,0.23
		c-1.2,0.46-0.9,1.89-1.98,2.47c-0.31,0.1-0.64-0.05-0.89-0.25c-0.3-0.42-0.66-0.81-0.81-1.32c-0.61-0.61-0.33-1.69-1.07-2.21
		c-1.22,0-2.47-0.51-3.67,0.01c-1.14,0.9-3.13,1.46-2.83,3.33c0.15,0.47,0.8,0.08,0.85,0.62c-0.32,0.7-0.45,1.46-0.71,2.18
		c-0.27,0.88-0.86,1.89-0.25,2.82c0.15,0.27,0.37,0.6,0.6,0.75c0.06-0.44,0.15-0.89,0.42-1.24c0.8-0.76,2.07-0.95,3.11-0.74
		c0.93,0.23,1.78,0.65,2.7,0.78c0.56,0.33,1.26,0.28,1.79,0.61c2.39,0.82,4.74,1.74,7.12,2.56c0.62,0.33,1.4,0.37,1.83,0.97
		c1.37,1.01,2.51,2.43,4.18,2.93c2.78,0.28,5.66,0.17,8.56-0.14c1.61-0.28,2.98-1.16,4.1-2.39l0.1-0.01
		c0.24-0.35,0.58-0.71,0.91-1.01c1.26-1.59,2.42-3.07,3.6-4.73c0.23-0.27,0.32-0.68,0.66-0.86c0.27,1.41-0.91,2.57-1.53,3.74
		c-2.4,3.91-4.98,7.53-8.24,11c-0.12,0.03-0.09,0.27-0.25,0.23c-0.45,0.98-1.65,0.67-2.45,1.09c-1.01,0.31-1.9,0.8-2.95,1.01
		c-0.12-0.05-0.27-0.15-0.37-0.1l0.01,0.22c-0.07,0.26-0.27,0.49-0.53,0.59c-0.25-0.51-0.51-1-0.7-1.53l-0.04,0l0.01,0.12l0.04,0
		c0.16,0.75,0.4,1.6,0.34,2.35c-0.2,0.09-0.32,0.46-0.59,0.29c-0.14-0.69-0.37-1.36-0.76-1.92l0.26,2.21c0.06,0.38,0.12,0.83,0,1.18
		c-0.14,0.03-0.21-0.13-0.31-0.2c-0.48-1.2-1.27-2.18-1.91-3.27c0.03-0.2,0.04-0.46,0.23-0.57c0.49,0.52,0.86,1.1,1.17,1.68l0.06,0
		c-0.28-1.11-0.73-2.1-1.09-3.17c0.07-0.18,0.23-0.15,0.37-0.16c0.5,0.35,0.9,0.79,1.34,1.19c-0.07-0.58-0.49-0.98-0.7-1.49
		c-0.74-1.14-2.05-1.62-3.08-2.32c-1.57-0.48-2.11-2.01-3.05-3.13c-0.38-0.3-0.8-0.68-1.29-0.49c-0.62,0.35-0.99,0.93-1.43,1.42
		c-0.93,1.37-1.85,2.94-2.25,4.54c-0.76,1.64,0.25,3.33,0.48,4.94c0.19,0.91,0.39,1.78,0.73,2.58c0.33,2.03,2.14,2.97,3.55,4.28
		c0.21,0.13,0.48,0.34,0.69,0.49c0.5,0.31,1.09,0.56,1.49,0.96c-0.29,0.5-0.84,0.06-1.25,0.29c2.36,3.44,4.9,6.86,7.34,10.29
		c0.31,0.14,0.25,0.67,0.66,0.71c2.26-3.08,4.48-6.24,6.73-9.36l0.08,0c1.85-2.86,4.06-5.62,5.99-8.48c-0.11-0.67-0.69-1.27-0.76-2
		c-0.78-0.02-1.29,0.69-2.08,0.55l-0.01-0.22c0.71-0.52,1.41-1.05,2.16-1.51c0.76-0.7,1.56-1.18,2.35-1.86
		c0.96-1.49,2.24-3.1,3.02-4.66c0.52-0.79,1.08-1.66,1.49-2.48c1.27-1.79,2.18-3.86,3.2-5.81c-0.18-4.96-0.63-9.9-3.55-13.61
		c0.01-0.16-0.1-0.38,0.06-0.48c0.44-0.3,0.71,0.24,0.98,0.47c0.13,0.13,0.14,0.39,0.32,0.42C46.99,12.27,47.03,11.44,47.21,10.67"
		/>
	<path fill="#FFFFFF" d="M39.55,8.99c0.09,0.18,0.32,0.36,0.25,0.59l-1.23-0.06c-0.03-0.56-0.33-1-0.81-1.28
		c-0.36-0.04-0.79-0.1-0.99,0.19c-0.04,0.38,0.53,0.25,0.42,0.72c-0.3,0.34-0.52-0.09-0.83-0.14c-0.15,0.13-0.19,0.29-0.2,0.45
		c-0.52,0.09-1.13,0.16-1.62,0.05c0.04-0.46,0.28-0.84,0.42-1.24c0.56-0.77,1.48-1.11,2.32-0.88C38.22,7.64,39.05,8.17,39.55,8.99"
		/>
	<path fill="#FFFFFF" d="M14.97,16.11c-0.19,1.41-1.98,1.52-2.33,3c-0.21,0.21-0.4,0.46-0.72,0.34c-0.89-0.84-1.41-2.11-1.14-3.39
		c0.93-0.67,2.29-0.98,3.41-0.66C14.48,15.67,14.9,15.67,14.97,16.11"/>
	<path fill="#FFFFFF" d="M32.2,17.8c-0.04,0.7-0.59,0.91-1.03,1.44c-0.92,0.85-2.06,1.93-3.44,2.02c-0.19-0.89,0.18-1.89-0.01-2.8
		c-0.07-0.1-0.27-0.17-0.36-0.02c-0.15,0.55-0.41,0.96-0.83,1.37c-0.81,0.14-1.54,0.52-2.24,0.9c-0.43,0.18-0.5-0.34-0.73-0.52
		c-0.09-0.66-0.74-1.44-0.11-2.06c0.77-0.6,1.67-1.03,2.76-0.88c0.94-0.09,1.7,1.13,2.53,0.13C29.76,16.4,31.31,16.98,32.2,17.8"/>
</g>
</svg>
