<?xml version="1.0" encoding="UTF-8" standalone="no"?>
<!DOCTYPE svg PUBLIC "-//W3C//DTD SVG 1.1//EN" "http://www.w3.org/Graphics/SVG/1.1/DTD/svg11.dtd">
<svg width="100%" height="100%" viewBox="0 0 1024 1024" version="1.1" xmlns="http://www.w3.org/2000/svg" xmlns:xlink="http://www.w3.org/1999/xlink" xml:space="preserve" xmlns:serif="http://www.serif.com/" style="fill-rule:evenodd;clip-rule:evenodd;stroke-linejoin:round;stroke-miterlimit:2;">
    <path d="M218.265,78.374C243.25,85.604 268.435,92.421 293.298,100.02C313.531,96.715 333.79,93.576 354.074,90.602C364.674,88.994 375.264,87.079 385.895,85.713C389.947,85.449 453.135,130.08 460.297,136.305C460.888,136.818 461.63,137.415 462.063,138.068C463.922,141.693 464.658,146.041 466.124,149.884C469.666,159.171 473.649,168.323 477.469,177.5L498.714,228.392C503.235,239.136 508.16,249.801 512.008,260.805C513.839,266.041 511.496,310.217 511.452,319.74C510.708,329.88 509.378,340.375 509.427,350.523L509.698,351.876L509.903,352.363C520.576,354.581 532.43,354.469 543.327,354.575C546.53,354.483 549.718,354.413 552.922,354.486C559.636,352.967 584.583,346.71 589.044,342.94L590.895,343.524L592.163,344.205C605.493,350.583 618.483,357.784 631.504,364.77L681.446,391.746C683.142,392.827 684.51,393.94 685.922,395.372C691.107,399.619 742.43,443.161 743.097,444.169C748.253,447.541 753.949,449.909 759.087,453.199C764.148,455.235 769.048,458.044 773.917,460.512C788.823,468.071 803.91,476.786 819.344,483.135L819.315,483.701C818.118,485.464 814.39,531.362 814.587,536.978L815.008,538.072L816.385,538.323L815.1,538.526C814.559,538.584 813.531,538.619 813.023,538.774C795.861,542.324 778.558,545.426 761.498,549.428L761.135,550.171C746.199,565.795 733.204,583.115 718.516,598.914L718.34,599.569L717.899,600.534C728.047,618.433 734.717,638.712 745.14,656.38C741.043,656.406 736.77,656.189 732.73,656.922L720.632,657.069C710.84,658.229 677.152,656.107 672.402,657.917L671.765,657.526C667.689,658.231 640.064,691.232 632.549,696.15L632.178,695.547C626.648,695.341 619.834,697.259 614.26,698.136L571.375,704.871C558.005,695.691 545.042,685.679 532.012,676.014C528.539,673.529 510.24,663.834 506.865,664.177C497.053,670.642 486.799,676.4 476.962,682.818C480.444,686.747 483.915,690.778 487.132,694.927L467.946,690.593C465.366,689.984 462.826,689.047 460.222,688.588C457.504,685.164 442.983,684.764 438.267,682.481C441.089,678.917 443.039,672.955 445.151,668.823C447.807,663.627 450.891,658.6 453.827,653.555C452.778,648.585 452.085,643.486 451.226,638.474L450.683,635.612C450.852,631.893 450.167,627.697 449.838,623.97C449.116,615.812 448.235,607.635 447.921,599.449L446.389,598.857C451.313,590.374 454.312,579.698 460.47,572.133L459.695,571.652L460.628,570.988C461.296,570.712 461.893,570.256 462.5,569.865C471.783,563.387 482.242,558.711 491.567,552.289L491.467,551.763C483.008,534.564 473.89,517.37 464.585,500.615C464.001,500.114 463.08,499.745 462.396,499.369L462.109,499.564C457.89,503.92 451.452,507.167 446.358,510.437C441.73,513.407 437.276,516.555 432.827,519.783L432.427,519.855C424.711,523.27 416.893,526.432 408.972,529.342C404.151,531.156 398.514,532.59 394.165,535.367L394.14,535.848C384.686,532.317 368.986,523.087 359.744,518.087C355.503,515.792 351.095,512.957 346.517,511.429L346.438,511.167L344.988,510.38C342.722,496.371 329.753,474.686 321.838,462.932L321.738,462.587C314.925,453.945 312.587,441.471 304.408,433.721L303.355,432.521C298.452,427.975 293.68,423.296 288.113,419.56L217.496,369.545C210.974,364.921 194.492,351.956 187.809,349.356C182.361,347.236 176.15,346.146 170.453,344.816C153.8,340.928 129.979,336.942 114.903,330.885C100.303,323.438 85.664,316.069 70.986,308.777L70.755,308.482C70.645,304.044 72.349,298.815 73.218,294.391C75.145,284.592 77.224,274.794 78.695,264.914L78.753,263.564C72.427,246.222 66.218,228.838 60.125,211.412C59.21,206.283 65.062,190.451 66.618,184.409C68.513,177.391 68.786,170.066 70.09,162.931C78.003,158.952 87.778,156.526 96.208,153.631C112.405,148.07 128.598,142.227 144.937,137.111C148.946,136.107 153.471,136.214 157.588,136.022C167.594,135.554 177.899,135.632 187.833,134.399C193.516,132.153 199.098,128.569 204.525,125.693C215.778,119.693 227.066,113.761 238.391,107.897C231.431,98.242 224.911,88.247 218.265,78.374Z" style="fill:rgb(23,48,71);fill-rule:nonzero;"/>
    <path d="M218.265,78.374C243.25,85.604 268.435,92.421 293.298,100.02C313.531,96.715 333.79,93.576 354.074,90.602C364.674,88.994 375.264,87.079 385.895,85.713C389.947,85.449 453.135,130.08 460.297,136.305C460.888,136.818 461.63,137.415 462.063,138.068C462.152,140.197 462.653,142.128 463.277,144.161C464.597,148.465 464.044,154.582 464.142,159.138C464.39,170.582 464.033,182.718 465.663,194.035C465.592,194.684 465.564,195.308 465.36,195.931C457.094,201.528 448.904,207.234 440.789,213.048C435.201,217.057 429.431,222.086 423.244,225.018C421.901,225.655 420.265,225.575 418.81,225.576L422.07,225.925L422.315,226.35C418.796,231.929 414.151,237.066 410.036,242.248C401.145,253.443 392.38,264.823 382.256,274.95L382,275.01L381.29,275.923C372.03,284.806 363.839,295.537 355.311,305.182C343.278,318.687 331.372,332.303 319.594,346.032C315.172,351.19 309.006,356.995 305.819,362.951C297.247,358.197 283.353,353.91 273.784,350.135L203.725,322.208C196.889,318.44 183.097,315.172 175.123,312.674C158.294,307.401 141.482,301.5 124.411,297.088C121.326,308.266 117.314,319.564 114.903,330.885C100.303,323.438 85.664,316.069 70.986,308.777L70.755,308.482C70.645,304.044 72.349,298.815 73.218,294.391C75.145,284.592 77.224,274.794 78.695,264.914L78.753,263.564C72.427,246.222 66.218,228.838 60.125,211.412C59.21,206.283 65.062,190.451 66.618,184.409C68.513,177.391 68.786,170.066 70.09,162.931C78.003,158.952 87.778,156.526 96.208,153.631C112.405,148.07 128.598,142.227 144.937,137.111C148.946,136.107 153.471,136.214 157.588,136.022C167.594,135.554 177.899,135.632 187.833,134.399C193.516,132.153 199.098,128.569 204.525,125.693C215.778,119.693 227.066,113.761 238.391,107.897C231.431,98.242 224.911,88.247 218.265,78.374Z" style="fill:rgb(136,189,219);fill-rule:nonzero;"/>
    <path d="M178.012,225.768C187.197,227.363 196.129,230.244 205.245,232.157C214.456,235.092 223.735,238.515 233.08,240.945C239.588,242.823 246.99,244.318 253.185,247.031C264.451,247.16 278.635,245.169 290.098,244.259C290.766,244.012 291.659,244.075 292.373,244.037C297.804,243.945 303.362,243.251 308.788,242.826C330.609,241.119 352.177,237.889 373.923,235.468C381.856,237.363 389.787,239.468 397.802,240.979C395.835,245.038 381.647,272.748 382,275.01L381.29,275.923C372.03,284.806 363.839,295.537 355.311,305.182C343.278,318.687 331.372,332.303 319.594,346.032C315.172,351.19 309.006,356.995 305.819,362.951C297.247,358.197 283.353,353.91 273.784,350.135L203.725,322.208C196.889,318.44 183.097,315.172 175.123,312.674C158.294,307.401 141.482,301.5 124.411,297.088L123.098,296.765C123.341,296.726 123.574,296.637 123.808,296.56C124.558,296.312 124.541,296.066 124.891,295.398C126.987,291.403 128.66,287.072 130.622,282.991C136.557,270.576 142.599,258.213 148.749,245.904C151.168,247.719 158.563,254.307 161.186,254.867C163.273,252.481 164.835,248.938 166.391,246.161C170.212,239.341 173.768,232.336 178.012,225.768Z" style="fill:rgb(47,139,194);fill-rule:nonzero;"/>
    <path d="M292.373,244.037C297.804,243.945 303.362,243.251 308.788,242.826C330.609,241.119 352.177,237.889 373.923,235.468C364.883,250.483 357.205,266.32 348.508,281.543C341.238,268.773 335.34,254.817 327.387,242.509C323.147,253.263 316.709,269.412 311.046,279.299C304.322,267.817 299.07,255.492 292.373,244.037Z" style="fill:rgb(254,254,253);fill-rule:nonzero;"/>
    <path d="M290.098,244.259L291.689,244.489C291.8,246.56 273.827,276.392 270.818,281.826L253.185,247.031C264.451,247.16 278.635,245.169 290.098,244.259Z" style="fill:rgb(254,254,253);fill-rule:nonzero;"/>
    <path d="M205.245,232.157C214.456,235.092 223.735,238.515 233.08,240.945C224.929,246.253 217.325,252.531 209.357,258.13C208.084,249.46 206.282,240.861 205.245,232.157Z" style="fill:rgb(136,189,219);fill-rule:nonzero;"/>
    <path d="M218.265,78.374C243.25,85.604 268.435,92.421 293.298,100.02C313.531,96.715 333.79,93.576 354.074,90.602C364.674,88.994 375.264,87.079 385.895,85.713C389.947,85.449 453.135,130.08 460.297,136.305C460.888,136.818 461.63,137.415 462.063,138.068C462.152,140.197 462.653,142.128 463.277,144.161C464.597,148.465 464.044,154.582 464.142,159.138C464.39,170.582 464.033,182.718 465.663,194.035C460.118,191.857 454.763,189.104 449.349,186.613C440.048,182.369 430.726,178.172 421.383,174.023C412.414,170.052 397.562,164.965 389.85,160.003C384.193,159.028 378.022,159.13 372.279,158.833C358.772,158.134 337.981,156.435 325.044,158.552C312.324,160.62 298.818,160.733 285.956,161.637C281.639,161.941 276.528,161.868 272.356,162.917C262.515,163.376 245.193,158.584 235.134,156.46C217.148,152.719 199.194,148.827 181.273,144.785C169.364,142.169 157.056,138.275 144.937,137.111C148.946,136.107 153.471,136.214 157.588,136.022C167.594,135.554 177.899,135.632 187.833,134.399C193.516,132.153 199.098,128.569 204.525,125.693C215.778,119.693 227.066,113.761 238.391,107.897C231.431,98.242 224.911,88.247 218.265,78.374Z" style="fill:rgb(23,48,71);fill-rule:nonzero;"/>
    <path d="M218.265,78.374C243.25,85.604 268.435,92.421 293.298,100.02C313.531,96.715 333.79,93.576 354.074,90.602C364.674,88.994 375.264,87.079 385.895,85.713L386.122,86.257C381.347,91.815 356.755,115.545 351.042,118.749C335.787,120.461 319.303,119.572 303.933,119.464L314.395,145.295C299.522,150.251 284.438,154.888 269.74,160.331C271.676,155.099 273.447,149.796 275.281,144.528C263.233,132.139 249.839,120.862 238.391,107.897C231.431,98.242 224.911,88.247 218.265,78.374Z" style="fill:rgb(136,189,219);fill-rule:nonzero;"/>
    <path d="M293.298,100.02C313.531,96.715 333.79,93.576 354.074,90.602C364.674,88.994 375.264,87.079 385.895,85.713L386.122,86.257C381.347,91.815 356.755,115.545 351.042,118.749C345.482,115.54 336.266,113.785 329.908,111.919C321.552,109.456 313.224,106.899 304.925,104.249C301.176,103.061 296.654,102.052 293.298,100.02Z" style="fill:url(#_Linear1);fill-rule:nonzero;"/>
    <path d="M385.895,85.713C389.947,85.449 453.135,130.08 460.297,136.305C460.888,136.818 461.63,137.415 462.063,138.068C462.152,140.197 462.653,142.128 463.277,144.161C464.597,148.465 464.044,154.582 464.142,159.138C464.39,170.582 464.033,182.718 465.663,194.035C460.118,191.857 454.763,189.104 449.349,186.613C440.048,182.369 430.726,178.172 421.383,174.023C412.414,170.052 397.562,164.965 389.85,160.003C403.729,159.764 422.049,160.495 435.897,161.981C430.231,157.325 425.093,151.86 419.832,146.744C409.338,136.519 398.925,126.211 388.593,115.822C387.435,106.004 387.155,96.089 386.122,86.257L385.895,85.713Z" style="fill:rgb(47,139,194);fill-rule:nonzero;"/>
    <path d="M238.391,107.897C249.839,120.862 263.233,132.139 275.281,144.528C273.447,149.796 271.676,155.099 269.74,160.331C268.417,160.93 267.299,161.194 265.866,160.913C260.458,159.854 248.195,154.51 242.264,152.456C224.21,146.203 205.957,140.452 187.833,134.399C193.516,132.153 199.098,128.569 204.525,125.693C215.778,119.693 227.066,113.761 238.391,107.897Z" style="fill:rgb(47,139,194);fill-rule:nonzero;"/>
    <path d="M372.254,128.337C375.18,131.349 383.967,152.753 386.25,157.645C382.079,156.597 377.857,155.893 373.621,155.162L357.785,152.341C362.363,144.224 367.429,136.315 372.254,128.337Z" style="fill:rgb(254,254,253);fill-rule:nonzero;"/>
    <path d="M331.105,181.958C341.794,196.724 354.205,210.679 365.657,224.894C383.371,224.965 401.098,225.811 418.81,225.576L422.07,225.925L422.315,226.35C418.796,231.929 414.151,237.066 410.036,242.248C401.145,253.443 392.38,264.823 382.256,274.95L382,275.01C381.647,272.748 395.835,245.038 397.802,240.979C389.787,239.468 381.856,237.363 373.923,235.468C352.177,237.889 330.609,241.119 308.788,242.826C303.362,243.251 297.804,243.945 292.373,244.037C291.659,244.075 290.766,244.012 290.098,244.259C278.635,245.169 264.451,247.16 253.185,247.031C246.99,244.318 239.588,242.823 233.08,240.945C223.735,238.515 214.456,235.092 205.245,232.157C196.129,230.244 187.197,227.363 178.012,225.768C173.768,232.336 170.212,239.341 166.391,246.161C164.835,248.938 163.273,252.481 161.186,254.867C158.563,254.307 151.168,247.719 148.749,245.904C142.599,258.213 136.557,270.576 130.622,282.991C128.66,287.072 126.987,291.403 124.891,295.398C124.541,296.066 124.558,296.312 123.808,296.56C123.574,296.637 123.341,296.726 123.098,296.765L124.411,297.088C121.326,308.266 117.314,319.564 114.903,330.885C100.303,323.438 85.664,316.069 70.986,308.777L70.755,308.482C70.645,304.044 72.349,298.815 73.218,294.391C75.145,284.592 77.224,274.794 78.695,264.914L78.753,263.564C72.427,246.222 66.218,228.838 60.125,211.412C62.874,210.486 66.776,210.733 69.72,210.575C87.752,210.526 105.737,208.454 123.779,208.49L126.916,208.854C138.603,209.605 150.293,210.298 161.986,210.931C169.205,211.309 176.562,211.408 183.744,212.143C198.127,216.651 212.379,221.928 226.591,226.961C233.714,229.484 240.989,232.548 248.35,234.223C261.111,232.643 273.954,229.84 286.783,229.116C293.373,228.744 300.076,229.21 306.672,229.373C317.769,229.68 328.868,229.891 339.969,230.006C337.459,214.013 334.563,197.772 331.105,181.958Z" style="fill:rgb(23,48,71);fill-rule:nonzero;"/>
    <path d="M76.08,225.147C89.272,224.052 102.532,221.969 115.677,220.329C126.972,228.244 138.071,237.17 148.749,245.904C142.599,258.213 136.557,270.576 130.622,282.991C128.66,287.072 126.987,291.403 124.891,295.398C124.541,296.066 124.558,296.312 123.808,296.56C123.574,296.637 123.341,296.726 123.098,296.765L124.411,297.088C121.326,308.266 117.314,319.564 114.903,330.885C100.303,323.438 85.664,316.069 70.986,308.777L70.755,308.482C70.645,304.044 72.349,298.815 73.218,294.391C75.145,284.592 77.224,274.794 78.695,264.914L78.753,263.564C79.266,259.388 78.278,254.229 77.933,250.002C77.225,241.724 76.608,233.439 76.08,225.147Z" style="fill:rgb(136,189,219);fill-rule:nonzero;"/>
    <path d="M93.934,295.244C103.317,294.519 113.742,295.733 123.098,296.765L124.411,297.088C121.326,308.266 117.314,319.564 114.903,330.885C100.303,323.438 85.664,316.069 70.986,308.777C78.695,305.101 87.081,300.373 93.934,295.244Z" style="fill:rgb(23,48,71);fill-rule:nonzero;"/>
    <path d="M78.695,264.914C84.059,273.74 87.242,287.734 93.934,295.244C87.081,300.373 78.695,305.101 70.986,308.777L70.755,308.482C70.645,304.044 72.349,298.815 73.218,294.391C75.145,284.592 77.224,274.794 78.695,264.914Z" style="fill:rgb(47,139,194);fill-rule:nonzero;"/>
    <path d="M145.853,219.831C156.461,222.221 167.303,223.88 178.012,225.768C173.768,232.336 170.212,239.341 166.391,246.161C164.835,248.938 163.273,252.481 161.186,254.867C157.079,242.739 151.178,231.446 145.853,219.831Z" style="fill:rgb(254,254,253);fill-rule:nonzero;"/>
    <path d="M70.09,162.931C78.003,158.952 87.778,156.526 96.208,153.631C112.405,148.07 128.598,142.227 144.937,137.111C157.056,138.275 169.364,142.169 181.273,144.785L180.975,145.618C181.239,156.37 181.072,167.343 181.941,178.052C175.482,177.736 168.988,178.099 162.525,177.67C154.291,177.123 146.087,175.794 137.839,175.513C135.2,178.102 125.004,203.989 123.779,208.49C105.737,208.454 87.752,210.526 69.72,210.575C66.776,210.733 62.874,210.486 60.125,211.412C59.21,206.283 65.062,190.451 66.618,184.409C68.513,177.391 68.786,170.066 70.09,162.931Z" style="fill:rgb(60,156,206);fill-rule:nonzero;"/>
    <path d="M83.728,187.57C92.553,186.872 102.104,183.335 110.742,181.14C119.515,178.911 128.322,177.195 137.13,175.181L137.839,175.513C135.2,178.102 125.004,203.989 123.779,208.49C105.737,208.454 87.752,210.526 69.72,210.575C66.776,210.733 62.874,210.486 60.125,211.412C59.21,206.283 65.062,190.451 66.618,184.409C72.267,185.672 77.907,186.987 83.612,187.98L83.728,187.57Z" style="fill:rgb(34,121,177);fill-rule:nonzero;"/>
    <path d="M60.125,211.412C59.21,206.283 65.062,190.451 66.618,184.409C72.267,185.672 77.907,186.987 83.612,187.98C80.499,195.823 74.445,203.591 69.72,210.575C66.776,210.733 62.874,210.486 60.125,211.412Z" style="fill:rgb(47,139,194);fill-rule:nonzero;"/>
    <path d="M180.975,145.618C181.239,156.37 181.072,167.343 181.941,178.052C175.482,177.736 168.988,178.099 162.525,177.67C154.291,177.123 146.087,175.794 137.839,175.513L137.13,175.181C152.34,165.983 166.686,156.193 180.975,145.618Z" style="fill:rgb(23,48,71);fill-rule:nonzero;"/>
    <path d="M70.09,162.931L71.224,166.222C73.751,173.626 79.385,181.064 83.728,187.57L83.612,187.98C77.907,186.987 72.267,185.672 66.618,184.409C68.513,177.391 68.786,170.066 70.09,162.931Z" style="fill:rgb(23,48,71);fill-rule:nonzero;"/>
    <path d="M183.744,212.143C201.532,200.676 220.14,190.208 238.38,179.462C245.743,175.123 259.828,165.652 267.512,163.207C264.766,177.498 260.067,191.806 256.136,205.82C253.52,215.149 251.438,225.078 248.35,234.223C240.989,232.548 233.714,229.484 226.591,226.961C212.379,221.928 198.127,216.651 183.744,212.143Z" style="fill:rgb(47,139,194);fill-rule:nonzero;"/>
    <path d="M272.356,162.917C276.528,161.868 281.639,161.941 285.956,161.637C298.818,160.733 312.324,160.62 325.044,158.552C343.336,169.814 360.973,182.23 379.172,193.68C352.486,185.036 324.932,178.23 297.94,170.571C290.785,168.54 278.15,166.397 272.356,162.917Z" style="fill:rgb(47,139,194);fill-rule:nonzero;"/>
    <path d="M137.839,175.513C146.087,175.794 154.291,177.123 162.525,177.67C168.988,178.099 175.482,177.736 181.941,178.052C179.076,181.21 174.867,183.472 171.25,185.69C156.408,194.797 142.253,201.06 126.592,208.319L126.916,208.854L123.779,208.49C125.004,203.989 135.2,178.102 137.839,175.513Z" style="fill:rgb(47,139,194);fill-rule:nonzero;"/>
    <path d="M681.446,391.746C683.142,392.827 684.51,393.94 685.922,395.372C691.107,399.619 742.43,443.161 743.097,444.169C748.253,447.541 753.949,449.909 759.087,453.199C764.148,455.235 769.048,458.044 773.917,460.512C788.823,468.071 803.91,476.786 819.344,483.135L819.315,483.701C818.118,485.464 814.39,531.362 814.587,536.978L815.008,538.072L816.385,538.323L815.1,538.526C814.559,538.584 813.531,538.619 813.023,538.774C795.861,542.324 778.558,545.426 761.498,549.428L761.135,550.171C746.199,565.795 733.204,583.115 718.516,598.914L718.34,599.569L717.899,600.534C728.047,618.433 734.717,638.712 745.14,656.38C741.043,656.406 736.77,656.189 732.73,656.922L720.632,657.069C710.84,658.229 677.152,656.107 672.402,657.917L671.765,657.526C667.689,658.231 640.064,691.232 632.549,696.15L632.178,695.547C626.648,695.341 619.834,697.259 614.26,698.136L571.375,704.871C558.005,695.691 545.042,685.679 532.012,676.014C528.539,673.529 510.24,663.834 506.865,664.177C497.053,670.642 486.799,676.4 476.962,682.818C480.444,686.747 483.915,690.778 487.132,694.927L467.946,690.593C465.366,689.984 462.826,689.047 460.222,688.588C457.504,685.164 442.983,684.764 438.267,682.481C441.089,678.917 443.039,672.955 445.151,668.823C447.807,663.627 450.891,658.6 453.827,653.555C452.778,648.585 452.085,643.486 451.226,638.474L450.683,635.612C450.852,631.893 450.167,627.697 449.838,623.97C449.116,615.812 448.235,607.635 447.921,599.449L446.389,598.857C451.313,590.374 454.312,579.698 460.47,572.133L459.695,571.652L460.628,570.988C461.296,570.712 461.893,570.256 462.5,569.865C471.783,563.387 482.242,558.711 491.567,552.289L491.467,551.763C483.008,534.564 473.89,517.37 464.585,500.615C477.515,504.708 493.002,514.815 505.659,520.839C512.292,511.346 518.743,500.611 526.529,492.081L526.728,491.143C531.255,490.577 550.253,505.065 554.641,508.471C559.456,512.209 564.405,516.078 568.761,520.343C570.678,514.83 571.757,504.01 572.909,497.679L584.164,434.243L584.516,433.717L584.764,433.381C591.514,431.557 598.157,427.556 604.43,424.456C616.365,418.559 628.502,412.303 640.976,407.662L641.281,408.927C641.364,408.541 641.339,408.114 641.531,407.769C643.166,404.841 675.835,396.874 681.261,393.241L681.446,391.746Z" style="fill:rgb(16,56,90);fill-rule:nonzero;"/>
    <path d="M681.446,391.746C683.142,392.827 684.51,393.94 685.922,395.372C691.107,399.619 742.43,443.161 743.097,444.169C748.253,447.541 753.949,449.909 759.087,453.199C764.148,455.235 769.048,458.044 773.917,460.512C788.823,468.071 803.91,476.786 819.344,483.135L819.315,483.701C818.118,485.464 814.39,531.362 814.587,536.978L815.008,538.072L816.385,538.323L815.1,538.526C814.559,538.584 813.531,538.619 813.023,538.774C795.861,542.324 778.558,545.426 761.498,549.428L761.135,550.171C746.199,565.795 733.204,583.115 718.516,598.914L718.34,599.569C718.185,599.48 718.023,599.403 717.876,599.302C710.375,594.112 703.189,587.928 695.901,582.389C689.346,577.407 681.639,572.537 675.797,566.831C674.661,565.722 674.407,565.145 674.097,563.594C669.794,548.74 663.877,534.082 658.79,519.459C655.698,510.573 651.305,494.928 647.133,487.472L646.23,489.585L645.446,489.469C640.04,497.777 635.616,507.06 631.007,515.847C625.168,526.978 619.056,538.107 613.83,549.538L613.672,549.533C613.324,545.585 611.878,541.263 610.925,537.402C608.255,526.586 605.147,515.995 602.218,505.265C592.626,509.264 577.988,518.485 568.978,520.69L568.761,520.343C570.678,514.83 571.757,504.01 572.909,497.679L584.164,434.243L584.516,433.717L584.764,433.381C591.514,431.557 598.157,427.556 604.43,424.456C616.365,418.559 628.502,412.303 640.976,407.662L641.281,408.927C641.364,408.541 641.339,408.114 641.531,407.769C643.166,404.841 675.835,396.874 681.261,393.241L681.446,391.746Z" style="fill:rgb(47,139,194);fill-rule:nonzero;"/>
    <path d="M647.245,485.266C653.069,483.479 705.545,466.773 707.804,467.403L708.198,468.827L708.751,468.052C711.222,469.186 716.497,480.034 718.165,482.978C727.978,500.297 738.802,516.726 749.852,533.269C752.38,537.053 758.135,546.624 761.438,549.089L761.498,549.428L761.135,550.171C746.199,565.795 733.204,583.115 718.516,598.914L718.34,599.569C718.185,599.48 718.023,599.403 717.876,599.302C710.375,594.112 703.189,587.928 695.901,582.389C689.346,577.407 681.639,572.537 675.797,566.831C674.661,565.722 674.407,565.145 674.097,563.594C669.794,548.74 663.877,534.082 658.79,519.459C655.698,510.573 651.305,494.928 647.133,487.472L647.081,485.475L647.245,485.266Z" style="fill:rgb(136,189,219);fill-rule:nonzero;"/>
    <path d="M708.198,468.827L708.751,468.052C711.222,469.186 716.497,480.034 718.165,482.978C727.978,500.297 738.802,516.726 749.852,533.269C752.38,537.053 758.135,546.624 761.438,549.089L761.498,549.428L761.135,550.171C746.199,565.795 733.204,583.115 718.516,598.914C716.602,579.159 714.836,559.39 713.219,539.608C711.195,516.949 709.018,494.161 708.005,471.432L708.198,468.827Z" style="fill:rgb(60,156,206);fill-rule:nonzero;"/>
    <path d="M743.097,444.169C748.253,447.541 753.949,449.909 759.087,453.199C764.148,455.235 769.048,458.044 773.917,460.512C788.823,468.071 803.91,476.786 819.344,483.135L819.315,483.701C818.118,485.464 814.39,531.362 814.587,536.978L815.008,538.072L816.385,538.323L815.1,538.526C814.559,538.584 813.531,538.619 813.023,538.774C795.861,542.324 778.558,545.426 761.498,549.428L761.438,549.089C757.513,523.03 753.145,497.045 748.333,471.134C747.038,464.006 745.977,452.3 743.464,445.907C743.206,445.486 743.178,444.663 743.097,444.169Z" style="fill:rgb(34,121,177);fill-rule:nonzero;"/>
    <path d="M814.587,536.978C810.784,530.625 805.015,525.06 800.496,519.177L769.408,478.52C761.686,468.584 753.198,458.809 746.805,447.94C748.829,449.446 755.982,453.096 758.485,453.237C758.686,453.249 758.886,453.212 759.087,453.199C764.148,455.235 769.048,458.044 773.917,460.512C788.823,468.071 803.91,476.786 819.344,483.135L819.315,483.701C818.118,485.464 814.39,531.362 814.587,536.978Z" style="fill:rgb(47,139,194);fill-rule:nonzero;"/>
    <path d="M647.245,485.266C647.248,485.12 647.242,484.974 647.255,484.828C647.715,479.64 681.522,395.508 683.022,394.134L683.546,394.644C685.35,402.706 688.12,410.435 690.773,418.247C696.35,434.665 702.693,450.768 708.419,467.108C716.109,462.725 723.738,458.239 731.305,453.648C735.227,451.295 740.06,448.921 743.464,445.907C745.977,452.3 747.038,464.006 748.333,471.134C753.145,497.045 757.513,523.03 761.438,549.089C758.135,546.624 752.38,537.053 749.852,533.269C738.802,516.726 727.978,500.297 718.165,482.978C716.497,480.034 711.222,469.186 708.751,468.052L708.198,468.827L707.804,467.403C705.545,466.773 653.069,483.479 647.245,485.266Z" style="fill:rgb(87,170,213);fill-rule:nonzero;"/>
    <path d="M584.164,434.243C586.288,440.736 587.541,447.843 589.442,454.479C594.226,471.178 599.32,487.798 603.934,504.543C610.068,502.519 642.425,488.761 647.081,485.475L647.133,487.472L646.23,489.585L645.446,489.469C640.04,497.777 635.616,507.06 631.007,515.847C625.168,526.978 619.056,538.107 613.83,549.538L613.672,549.533C613.324,545.585 611.878,541.263 610.925,537.402C608.255,526.586 605.147,515.995 602.218,505.265C592.626,509.264 577.988,518.485 568.978,520.69L568.761,520.343C570.678,514.83 571.757,504.01 572.909,497.679L584.164,434.243Z" style="fill:rgb(28,99,151);fill-rule:nonzero;"/>
    <path d="M640.976,407.662L641.281,408.927L644.981,457.399C645.75,466.677 647.19,476.335 647.09,485.617C630.289,470.547 613.078,455.959 595.459,441.853C592.268,439.327 588.205,435.213 584.516,433.717L584.764,433.381C591.514,431.557 598.157,427.556 604.43,424.456C616.365,418.559 628.502,412.303 640.976,407.662Z" style="fill:rgb(87,170,213);fill-rule:nonzero;"/>
    <path d="M647.133,487.472C651.305,494.928 655.698,510.573 658.79,519.459C663.877,534.082 669.794,548.74 674.097,563.594C674.407,565.145 674.661,565.722 675.797,566.831C681.639,572.537 689.346,577.407 695.901,582.389C703.189,587.928 710.375,594.112 717.876,599.302C718.023,599.403 718.185,599.48 718.34,599.569L717.899,600.534C728.047,618.433 734.717,638.712 745.14,656.38C741.043,656.406 736.77,656.189 732.73,656.922L720.632,657.069C710.84,658.229 677.152,656.107 672.402,657.917L671.765,657.526C667.689,658.231 640.064,691.232 632.549,696.15L632.178,695.547C628.431,681.479 622.178,667.254 616.636,653.786C614.721,649.133 612.382,644.543 610.814,639.765L610.513,639.382L610.509,639.047C611.626,632.287 613.869,625.48 615.659,618.852C618.584,608.175 621.369,597.461 624.014,586.712C631.739,554.409 639.145,522.034 646.23,489.585L647.133,487.472Z" style="fill:rgb(47,139,194);fill-rule:nonzero;"/>
    <path d="M673.977,565.697C674.547,573.696 673.936,581.869 673.716,589.881C673.371,603.55 672.915,617.216 672.346,630.878C671.997,639.661 671.355,648.541 671.501,657.325L671.765,657.526C667.689,658.231 640.064,691.232 632.549,696.15L632.178,695.547C628.431,681.479 622.178,667.254 616.636,653.786C614.721,649.133 612.382,644.543 610.814,639.765L610.513,639.382L610.509,639.047C619.406,631.563 627.083,622.036 634.514,613.131C647.639,597.398 660.22,580.863 673.977,565.697Z" style="fill:rgb(136,189,219);fill-rule:nonzero;"/>
    <path d="M610.814,639.765C617.337,641.12 623.591,644.154 630.033,645.958C643.793,649.812 657.938,652.831 671.501,657.325L671.765,657.526C667.689,658.231 640.064,691.232 632.549,696.15L632.178,695.547C628.431,681.479 622.178,667.254 616.636,653.786C614.721,649.133 612.382,644.543 610.814,639.765Z" style="fill:rgb(34,121,177);fill-rule:nonzero;"/>
    <path d="M717.899,600.534C728.047,618.433 734.717,638.712 745.14,656.38C741.043,656.406 736.77,656.189 732.73,656.922L720.632,657.069C715.746,656.701 710.665,656.983 705.759,656.996C694.588,657.027 683.388,657.244 672.222,656.914C677.257,649.428 683.629,642.461 689.322,635.443C698.721,623.704 708.247,612.067 717.899,600.534Z" style="fill:rgb(28,99,151);fill-rule:nonzero;"/>
    <path d="M613.83,549.538C619.056,538.107 625.168,526.978 631.007,515.847C635.616,507.06 640.04,497.777 645.446,489.469L646.23,489.585C639.145,522.034 631.739,554.409 624.014,586.712C621.369,597.461 618.584,608.175 615.659,618.852C613.869,625.48 611.626,632.287 610.509,639.047L610.513,639.382C600.67,635.49 551.861,615.494 546.282,610.5L546.472,610.219C546.614,600.028 546.703,589.837 546.739,579.645C546.749,572.749 546.247,565.171 547.345,558.35C551.783,554.123 564.474,528.865 568.999,521.487L568.978,520.69C577.988,518.485 592.626,509.264 602.218,505.265C605.147,515.995 608.255,526.586 610.925,537.402C611.878,541.263 613.324,545.585 613.672,549.533L613.83,549.538Z" style="fill:rgb(28,99,151);fill-rule:nonzero;"/>
    <path d="M613.83,549.538C619.056,538.107 625.168,526.978 631.007,515.847C635.616,507.06 640.04,497.777 645.446,489.469L646.23,489.585C639.145,522.034 631.739,554.409 624.014,586.712C621.369,597.461 618.584,608.175 615.659,618.852C613.869,625.48 611.626,632.287 610.509,639.047L610.513,639.382C600.67,635.49 551.861,615.494 546.282,610.5L546.472,610.219C551.388,610.38 581.58,592.72 587.919,589.746C594.074,599.351 598.252,610.68 602.642,621.175C605.031,626.884 607.865,632.596 609.407,638.603C610.502,630.786 610.605,622.573 611.269,614.681C613.064,593.357 615.818,570.874 613.83,549.538Z" style="fill:rgb(20,72,114);fill-rule:nonzero;"/>
    <path d="M602.218,505.265C605.147,515.995 608.255,526.586 610.925,537.402C611.878,541.263 613.324,545.585 613.672,549.533C605.845,563.154 596.736,576.233 587.587,588.988L575.807,545.404C573.658,537.433 571.81,529.249 568.999,521.487L568.978,520.69C577.988,518.485 592.626,509.264 602.218,505.265Z" style="fill:rgb(47,139,194);fill-rule:nonzero;"/>
    <path d="M452.597,636.008C454.682,634.183 535.401,614.015 545.212,612.027C544.215,619.769 534.647,670.937 532.012,676.014C528.539,673.529 510.24,663.834 506.865,664.177C497.053,670.642 486.799,676.4 476.962,682.818C480.444,686.747 483.915,690.778 487.132,694.927L467.946,690.593C465.366,689.984 462.826,689.047 460.222,688.588C457.504,685.164 442.983,684.764 438.267,682.481C441.089,678.917 443.039,672.955 445.151,668.823C447.807,663.627 450.891,658.6 453.827,653.555C452.778,648.585 452.085,643.486 451.226,638.474L451.436,636.517L452.597,636.008Z" style="fill:rgb(20,72,114);fill-rule:nonzero;"/>
    <path d="M451.226,638.474L451.436,636.517L452.597,636.008C461.968,641.434 472.167,645.82 481.821,650.766C487.986,653.924 494.211,657.099 500.303,660.392C502.511,661.586 504.601,663.118 506.865,664.177C497.053,670.642 486.799,676.4 476.962,682.818C480.444,686.747 483.915,690.778 487.132,694.927L467.946,690.593C465.366,689.984 462.826,689.047 460.222,688.588C457.504,685.164 442.983,684.764 438.267,682.481C441.089,678.917 443.039,672.955 445.151,668.823C447.807,663.627 450.891,658.6 453.827,653.555C452.778,648.585 452.085,643.486 451.226,638.474Z" style="fill:rgb(23,48,71);fill-rule:nonzero;"/>
    <path d="M453.827,653.555C454.512,657.251 473.327,680.05 476.962,682.818C480.444,686.747 483.915,690.778 487.132,694.927L467.946,690.593C465.366,689.984 462.826,689.047 460.222,688.588C457.504,685.164 442.983,684.764 438.267,682.481C441.089,678.917 443.039,672.955 445.151,668.823C447.807,663.627 450.891,658.6 453.827,653.555Z" style="fill:rgb(47,139,194);fill-rule:nonzero;"/>
    <path d="M505.659,520.839C512.292,511.346 518.743,500.611 526.529,492.081C530.934,508.6 536.484,524.89 541.283,541.316C542.873,546.755 545.366,553.013 546.037,558.626L545.691,558.583L545.03,557.536C533.625,557.561 518.145,554.58 506.414,553.192C501.678,552.631 496.281,551.564 491.567,552.289L491.467,551.763C483.008,534.564 473.89,517.37 464.585,500.615C477.515,504.708 493.002,514.815 505.659,520.839Z" style="fill:rgb(47,139,194);fill-rule:nonzero;"/>
    <path d="M504.969,521.964C512.537,529.147 520.584,535.909 528.536,542.663C533.47,546.853 541.51,552.294 545.03,557.536C533.625,557.561 518.145,554.58 506.414,553.192C501.678,552.631 496.281,551.564 491.567,552.289L491.467,551.763C496.737,542.375 500.514,531.784 504.969,521.964Z" style="fill:rgb(28,99,151);fill-rule:nonzero;"/>
    <path d="M491.567,552.289C496.281,551.564 501.678,552.631 506.414,553.192C518.145,554.58 533.625,557.561 545.03,557.536L545.691,558.583L544.048,559.315C534.659,566.555 523.73,572.38 513.449,578.235C509.053,580.738 503.82,583.217 499.868,586.359L499.596,586.422C497.707,584.222 465.759,573.161 461.088,572.099L460.47,572.133L459.695,571.652L460.628,570.988C461.296,570.712 461.893,570.256 462.5,569.865C471.783,563.387 482.242,558.711 491.567,552.289Z" style="fill:rgb(47,139,194);fill-rule:nonzero;"/>
    <path d="M491.567,552.289C496.281,551.564 501.678,552.631 506.414,553.192C518.145,554.58 533.625,557.561 545.03,557.536L545.691,558.583L544.048,559.315C537.248,558.926 529.319,560.843 522.599,561.897C509.007,563.992 495.445,566.266 481.913,568.721C475.034,569.95 467.902,570.694 461.088,572.099L460.47,572.133L459.695,571.652L460.628,570.988C461.296,570.712 461.893,570.256 462.5,569.865C471.783,563.387 482.242,558.711 491.567,552.289Z" style="fill:rgb(87,170,213);fill-rule:nonzero;"/>
    <path d="M545.691,558.583L546.037,558.626L546.225,558.928C546.212,560.157 546.121,561.355 545.746,562.534C544.162,567.506 541.499,572.295 539.556,577.152C535.816,586.5 532.635,596.165 528.376,605.289L527.895,605.422C524.694,602.028 505.359,590.253 499.868,586.359C503.82,583.217 509.053,580.738 513.449,578.235C523.73,572.38 534.659,566.555 544.048,559.315L545.691,558.583Z" style="fill:rgb(28,99,151);fill-rule:nonzero;"/>
    <path d="M460.47,572.133L461.088,572.099C465.759,573.161 497.707,584.222 499.596,586.422C493.312,589.991 472.974,600.441 466.821,600.626C460.519,600.304 454.223,599.802 447.921,599.449L446.389,598.857C451.313,590.374 454.312,579.698 460.47,572.133Z" style="fill:rgb(60,156,206);fill-rule:nonzero;"/>
    <path d="M499.868,586.359C505.359,590.253 524.694,602.028 527.895,605.422C527.66,605.617 527.428,605.815 527.19,606.006C525.972,606.987 524.634,607.883 523.032,607.996C515.552,608.524 506.686,605.831 499.196,604.739C488.443,603.172 477.606,601.965 466.821,600.626C472.974,600.441 493.312,589.991 499.596,586.422L499.868,586.359Z" style="fill:rgb(34,121,177);fill-rule:nonzero;"/>
    <path d="M589.044,342.94L590.895,343.524L592.163,344.205C605.493,350.583 618.483,357.784 631.504,364.77L681.446,391.746L681.261,393.241C675.835,396.874 643.166,404.841 641.531,407.769C641.339,408.114 641.364,408.541 641.281,408.927L640.976,407.662C628.502,412.303 616.365,418.559 604.43,424.456C598.157,427.556 591.514,431.557 584.764,433.381L584.516,433.717L584.164,434.243L572.909,497.679C571.757,504.01 570.678,514.83 568.761,520.343C564.405,516.078 559.456,512.209 554.641,508.471C550.253,505.065 531.255,490.577 526.728,491.143L526.529,492.081C518.743,500.611 512.292,511.346 505.659,520.839C493.002,514.815 477.515,504.708 464.585,500.615C464.001,500.114 463.08,499.745 462.396,499.369L462.109,499.564C457.89,503.92 451.452,507.167 446.358,510.437C441.73,513.407 437.276,516.555 432.827,519.783L432.427,519.855C429.028,514.054 405.632,478.869 401.387,475.035L401.256,474.505L402.6,474.515L401.731,473.814L402.645,472.567C408.844,467.379 419.608,450.713 425.168,443.326C436.476,428.301 448.313,413.722 459.378,398.505L460.313,397.407C464.197,394.881 480.58,384.235 481.809,381.086L482.46,382.009C489.358,376.541 503.292,359.205 509.698,351.876L509.903,352.363C520.576,354.581 532.43,354.469 543.327,354.575C546.53,354.483 549.718,354.413 552.922,354.486C559.636,352.967 584.583,346.71 589.044,342.94Z" style="fill:rgb(47,139,194);fill-rule:nonzero;"/>
    <path d="M589.044,342.94L590.895,343.524L592.163,344.205C605.493,350.583 618.483,357.784 631.504,364.77L681.446,391.746L681.261,393.241C675.835,396.874 643.166,404.841 641.531,407.769C641.339,408.114 641.364,408.541 641.281,408.927L640.976,407.662C628.502,412.303 616.365,418.559 604.43,424.456C598.157,427.556 591.514,431.557 584.764,433.381L584.516,433.717L584.164,434.243C575.988,435.684 567.693,438.369 559.619,440.405C543.656,444.436 527.652,448.292 511.605,451.975C510.952,443.186 511.435,434.144 511.331,425.318C511.047,401.222 511.251,376.923 510.03,352.857L509.903,352.363C520.576,354.581 532.43,354.469 543.327,354.575C546.53,354.483 549.718,354.413 552.922,354.486C559.636,352.967 584.583,346.71 589.044,342.94Z" style="fill:rgb(136,189,219);fill-rule:nonzero;"/>
    <path d="M592.163,344.205C605.493,350.583 618.483,357.784 631.504,364.77L681.446,391.746L681.261,393.241C675.835,396.874 643.166,404.841 641.531,407.769C641.339,408.114 641.364,408.541 641.281,408.927L640.976,407.662C639.714,403.166 605.015,360.765 599.231,353.295C597.457,351.004 593.074,346.579 592.163,344.205Z" style="fill:rgb(47,139,194);fill-rule:nonzero;"/>
    <path d="M589.044,342.94L590.895,343.524C590.067,350.525 589.983,357.666 589.469,364.704C587.807,387.444 586.682,410.318 584.487,433.006L583.411,432.069C582.967,427.434 572.825,404.344 570.441,398.136C565.529,385.349 561.28,372.257 555.942,359.638C555.138,357.737 554.191,356.116 552.922,354.486C559.636,352.967 584.583,346.71 589.044,342.94Z" style="fill:rgb(47,139,194);fill-rule:nonzero;"/>
    <path d="M543.327,354.575C546.53,354.483 549.718,354.413 552.922,354.486C554.191,356.116 555.138,357.737 555.942,359.638C561.28,372.257 565.529,385.349 570.441,398.136C572.825,404.344 582.967,427.434 583.411,432.069C576.648,426.997 570.309,419.797 564.162,413.898C556.675,406.712 548.746,399.892 541.596,392.38C545.487,380.022 547.604,367.155 551.992,354.931C549.067,354.948 546.238,354.872 543.327,354.575Z" style="fill:rgb(60,156,206);fill-rule:nonzero;"/>
    <path d="M509.903,352.363C520.576,354.581 532.43,354.469 543.327,354.575C546.238,354.872 549.067,354.948 551.992,354.931C547.604,367.155 545.487,380.022 541.596,392.38C533.659,383.681 526.669,373.764 519.445,364.461C516.452,360.605 513.558,356.235 510.03,352.857L509.903,352.363Z" style="fill:rgb(47,139,194);fill-rule:nonzero;"/>
    <path d="M459.378,398.505C460.175,407.682 459.892,417.066 459.993,426.283C460.105,436.561 460.455,446.838 460.524,457.116C460.618,471.079 460.467,485.202 461.573,499.125L462.109,499.564C457.89,503.92 451.452,507.167 446.358,510.437C441.73,513.407 437.276,516.555 432.827,519.783L432.427,519.855C429.028,514.054 405.632,478.869 401.387,475.035L401.256,474.505L402.6,474.515L401.731,473.814L402.645,472.567C408.844,467.379 419.608,450.713 425.168,443.326C436.476,428.301 448.313,413.722 459.378,398.505Z" style="fill:rgb(87,170,213);fill-rule:nonzero;"/>
    <path d="M402.6,474.515C411.998,477.784 421.17,481.913 430.341,485.773C440.773,490.163 451.285,494.407 461.573,499.125L462.109,499.564C457.89,503.92 451.452,507.167 446.358,510.437C441.73,513.407 437.276,516.555 432.827,519.783L432.427,519.855C429.028,514.054 405.632,478.869 401.387,475.035L401.256,474.505L402.6,474.515Z" style="fill:rgb(34,121,177);fill-rule:nonzero;"/>
    <path d="M462.396,499.369C466.692,493.78 473.305,488.693 478.387,483.721C489.299,473.043 499.929,462.076 510.948,451.509C517.814,463.741 521.396,478.162 526.728,491.143L526.529,492.081C518.743,500.611 512.292,511.346 505.659,520.839C493.002,514.815 477.515,504.708 464.585,500.615C464.001,500.114 463.08,499.745 462.396,499.369Z" style="fill:rgb(136,189,219);fill-rule:nonzero;"/>
    <path d="M481.809,381.086L482.46,382.009C481.447,389.229 506.272,438.655 510.236,450.08C503.021,442.137 460.936,402.235 459.378,398.505L460.313,397.407C464.197,394.881 480.58,384.235 481.809,381.086Z" style="fill:rgb(34,121,177);fill-rule:nonzero;"/>
    <path d="M462.063,138.068C463.922,141.693 464.658,146.041 466.124,149.884C469.666,159.171 473.649,168.323 477.469,177.5L498.714,228.392C503.235,239.136 508.16,249.801 512.008,260.805C513.839,266.041 511.496,310.217 511.452,319.74C510.708,329.88 509.378,340.375 509.427,350.523L509.698,351.876C503.292,359.205 489.358,376.541 482.46,382.009L481.809,381.086C480.58,384.235 464.197,394.881 460.313,397.407C460.316,395.502 460.08,393.835 459.502,392.009C458.001,387.268 438.424,338.773 436.98,337.348C436.233,336.61 436.454,336.957 435.919,336.101C435.823,335.947 435.741,335.785 435.652,335.627C442.236,312.34 447.425,288.44 453.15,264.919C453.915,256.637 457.58,244.566 459.486,236.112C461.72,226.202 463.07,216.386 464.478,206.347C464.726,204.271 464.961,202.382 464.643,200.289C464.44,199.007 465.069,197.224 465.36,195.931C465.564,195.308 465.592,194.684 465.663,194.035C464.033,182.718 464.39,170.582 464.142,159.138C464.044,154.582 464.597,148.465 463.277,144.161C462.653,142.128 462.152,140.197 462.063,138.068Z" style="fill:rgb(28,99,151);fill-rule:nonzero;"/>
    <path d="M462.063,138.068C463.922,141.693 464.658,146.041 466.124,149.884C469.666,159.171 473.649,168.323 477.469,177.5L498.714,228.392C503.235,239.136 508.16,249.801 512.008,260.805C513.839,266.041 511.496,310.217 511.452,319.74C510.708,329.88 509.378,340.375 509.427,350.523C506.668,343.381 504.438,335.977 501.904,328.747C494.161,306.653 486.814,284.6 479.707,262.295C475.123,247.908 464.758,220.647 464.478,206.347C464.726,204.271 464.961,202.382 464.643,200.289C464.44,199.007 465.069,197.224 465.36,195.931C465.564,195.308 465.592,194.684 465.663,194.035C464.033,182.718 464.39,170.582 464.142,159.138C464.044,154.582 464.597,148.465 463.277,144.161C462.653,142.128 462.152,140.197 462.063,138.068Z" style="fill:rgb(34,121,177);fill-rule:nonzero;"/>
    <path d="M453.15,264.919C455.928,270.629 456.19,278.82 457.759,285.048C463.014,305.906 468.775,326.615 473.816,347.537C475.889,356.141 478.656,373.72 481.809,381.086C480.58,384.235 464.197,394.881 460.313,397.407C460.316,395.502 460.08,393.835 459.502,392.009C458.001,387.268 438.424,338.773 436.98,337.348C436.233,336.61 436.454,336.957 435.919,336.101C435.823,335.947 435.741,335.785 435.652,335.627C442.236,312.34 447.425,288.44 453.15,264.919Z" style="fill:rgb(47,139,194);fill-rule:nonzero;"/>
    <g transform="matrix(1,0,0,1,-0.29559,-7.88558)">
        <path d="M365.747,413.729C371.644,416.344 387.739,447.285 391.259,454.373C394.148,460.191 396.661,467.156 400.166,472.571C400.67,473.35 400.841,473.72 401.731,473.814L402.6,474.515L401.256,474.505L401.387,475.035C405.632,478.869 429.028,514.054 432.427,519.855C424.711,523.27 416.893,526.432 408.972,529.342C404.151,531.156 398.514,532.59 394.165,535.367L394.14,535.848C384.686,532.317 368.986,523.087 359.744,518.087C355.503,515.792 351.095,512.957 346.517,511.429L346.438,511.167L344.988,510.38C342.722,496.371 329.753,474.686 321.838,462.932L321.738,462.587C330.948,454.152 342.159,441.729 350.279,432.083C354.708,426.821 358.808,420.728 363.817,416.046L365.747,413.729Z" style="fill:rgb(47,139,194);fill-rule:nonzero;"/>
    </g>
    <path d="M346.496,510.627C349.834,509.152 353.194,506.187 356.246,504.12C362.678,499.764 396.716,475.682 401.256,474.505L401.387,475.035C405.632,478.869 429.028,514.054 432.427,519.855C424.711,523.27 416.893,526.432 408.972,529.342C404.151,531.156 398.514,532.59 394.165,535.367L394.14,535.848C384.686,532.317 368.986,523.087 359.744,518.087C355.503,515.792 351.095,512.957 346.517,511.429L346.438,511.167L346.496,510.627Z" style="fill:rgb(87,170,213);fill-rule:nonzero;"/>
    <path d="M401.387,475.035C405.632,478.869 429.028,514.054 432.427,519.855C424.711,523.27 416.893,526.432 408.972,529.342C404.151,531.156 398.514,532.59 394.165,535.367C396.376,529.664 396.221,521.089 396.845,514.968C398.194,501.714 399.321,488.191 401.387,475.035Z" style="fill:rgb(47,139,194);fill-rule:nonzero;"/>
    <path d="M363.817,416.046C358.468,438.834 354.863,462.034 350.767,485.074C349.674,491.227 346.369,505.069 346.496,510.627L346.438,511.167L344.988,510.38C342.722,496.371 329.753,474.686 321.838,462.932L321.738,462.587C330.948,454.152 342.159,441.729 350.279,432.083C354.708,426.821 358.808,420.728 363.817,416.046Z" style="fill:rgb(23,85,131);fill-rule:nonzero;"/>
    <path d="M435.652,335.627C435.741,335.785 435.823,335.947 435.919,336.101C436.454,336.957 436.233,336.61 436.98,337.348C438.424,338.773 458.001,387.268 459.502,392.009C460.08,393.835 460.316,395.502 460.313,397.407L459.378,398.505C448.313,413.722 436.476,428.301 425.168,443.326C419.608,450.713 408.844,467.379 402.645,472.567L401.731,473.814C400.841,473.72 400.67,473.35 400.166,472.571C396.661,467.156 394.148,460.191 391.259,454.373C387.739,447.285 371.644,416.344 365.747,413.729L365.972,413.369C372.311,406.964 378.177,400.03 384.162,393.291C393.805,382.448 403.388,371.552 412.911,360.603C418.332,354.336 423.384,347.497 429.236,341.638C430.971,339.901 432.645,338.404 435.026,337.652L435.652,335.627Z" style="fill:rgb(20,72,114);fill-rule:nonzero;"/>
    <path d="M435.652,335.627C435.741,335.785 435.823,335.947 435.919,336.101C436.454,336.957 436.233,336.61 436.98,337.348C438.424,338.773 458.001,387.268 459.502,392.009C460.08,393.835 460.316,395.502 460.313,397.407L459.378,398.505C448.313,413.722 436.476,428.301 425.168,443.326C419.608,450.713 408.844,467.379 402.645,472.567C403.439,467.738 404.937,462.831 406.102,458.069L413.77,427.113C421.171,397.368 428.256,367.547 435.026,337.652L435.652,335.627Z" style="fill:rgb(47,139,194);fill-rule:nonzero;"/>
    <path d="M124.411,297.088C141.482,301.5 158.294,307.401 175.123,312.674C183.097,315.172 196.889,318.44 203.725,322.208C206.685,329.046 219.897,340.969 225.577,347.048C241.005,363.56 256.068,380.37 271.14,397.202C274.61,401.078 278.001,405.102 281.574,408.876C283.703,411.125 286.174,413.157 287.972,415.695C288.773,416.826 289.303,417.754 288.823,419.103L288.113,419.56L217.496,369.545C210.974,364.921 194.492,351.956 187.809,349.356C182.361,347.236 176.15,346.146 170.453,344.816C153.8,340.928 129.979,336.942 114.903,330.885C117.314,319.564 121.326,308.266 124.411,297.088Z" style="fill:rgb(20,72,114);fill-rule:nonzero;"/>
    <path d="M382,275.01L382.256,274.95C385.675,281.785 417.645,309.371 425.919,318.059C416.526,324.729 407.214,331.856 397.35,337.796C375.107,344.46 352.625,350.535 330.234,356.694C324.245,358.341 310.958,362.915 305.819,362.951C309.006,356.995 315.172,351.19 319.594,346.032C331.372,332.303 343.278,318.687 355.311,305.182C363.839,295.537 372.03,284.806 381.29,275.923L382,275.01Z" style="fill:rgb(136,189,219);fill-rule:nonzero;"/>
    <path d="M382,275.01L382.256,274.95C385.675,281.785 417.645,309.371 425.919,318.059C416.526,324.729 407.214,331.856 397.35,337.796C392.495,317.074 386.167,296.67 381.29,275.923L382,275.01Z" style="fill:rgb(47,139,194);fill-rule:nonzero;"/>
    <path d="M418.81,225.576C420.265,225.575 421.901,225.655 423.244,225.018C429.431,222.086 435.201,217.057 440.789,213.048C448.904,207.234 457.094,201.528 465.36,195.931C465.069,197.224 464.44,199.007 464.643,200.289C456.225,225.092 448.022,249.967 440.035,274.912L430.852,303.533C429.284,308.341 427.904,313.422 425.919,318.059C417.645,309.371 385.675,281.785 382.256,274.95C392.38,264.823 401.145,253.443 410.036,242.248C414.151,237.066 418.796,231.929 422.315,226.35L422.07,225.925L418.81,225.576Z" style="fill:rgb(60,156,206);fill-rule:nonzero;"/>
    <path d="M306.558,366.863C316.38,371.705 328.151,383.214 337.183,390.419C346.754,398.054 357.008,404.996 365.972,413.369L365.747,413.729L363.817,416.046C358.808,420.728 354.708,426.821 350.279,432.083C342.159,441.729 330.948,454.152 321.738,462.587C314.925,453.945 312.587,441.471 304.408,433.721L303.355,432.521C304.4,427.321 304.144,421.462 304.5,416.129C305.601,399.654 306.471,383.382 306.558,366.863Z" style="fill:rgb(16,56,90);fill-rule:nonzero;"/>
    <path d="M391.244,631.8C401.53,631.554 412.09,634.732 422.289,635.998L422.374,635.63L423.093,636.065C428.595,634.658 444.684,635.203 450.683,635.612L451.226,638.474C452.085,643.486 452.778,648.585 453.827,653.555C450.891,658.6 447.807,663.627 445.151,668.823C443.039,672.955 441.089,678.917 438.267,682.481C442.983,684.764 457.504,685.164 460.222,688.588C464.701,699.419 469.808,710.03 474.696,720.682C482.577,737.858 489.981,755.198 501.676,770.23L486.372,800.051C483.03,806.55 477.978,814.099 476.425,821.195C475.687,824.563 476.461,828.669 476.752,832.087C478.309,846.789 478.026,861.713 479.916,876.38C471.579,869.982 463.362,863.434 455.265,856.735C454.145,857.055 453.603,857.182 452.681,857.929C448.783,870.936 445.43,884.062 441.781,897.137C441.388,898.665 441.226,900.034 439.913,901.057C430.666,904.095 420.824,906.063 411.367,908.404C402.736,910.541 393.782,913.325 384.975,914.471C370.727,916.326 355.851,916.454 341.491,917.223C320.635,919.065 298.384,920.032 277.377,921.128C276.341,921.502 275.961,921.474 274.894,921.395L274.693,920.635C277.189,915.188 281.833,909.893 285.345,904.969C263.282,905.756 241.198,908.237 219.134,908.572L223.925,904.782C233.33,895.376 243.331,886.496 253.078,877.447C266.947,864.43 281.006,851.62 295.255,839.018C296.936,838.151 297.481,838.333 299.323,838.472L358.474,842.304L359.092,841.961C378.382,821.703 395.758,799.865 413.914,778.624L414.127,777.638L413.54,777.135C398.446,764.146 384.432,750.332 370.041,736.584C364.996,731.763 352.478,721.401 349.543,715.876C346.33,709.826 344.939,701.682 342.943,695.118C340.293,686.405 337.253,677.815 334.577,669.11L331.737,661.019L334.117,658.834C338.492,658.553 349.61,654.558 354.907,653.23C367.314,650.12 379.704,647.695 392.218,645.145C391.82,640.915 391.515,636.749 391.486,632.5L391.244,631.8Z" style="fill:rgb(16,56,90);fill-rule:nonzero;"/>
    <path d="M391.244,631.8C401.53,631.554 412.09,634.732 422.289,635.998L422.374,635.63L423.093,636.065C428.595,634.658 444.684,635.203 450.683,635.612L451.226,638.474C452.085,643.486 452.778,648.585 453.827,653.555C450.891,658.6 447.807,663.627 445.151,668.823C443.039,672.955 441.089,678.917 438.267,682.481C430.309,679.007 421.284,669.268 413.838,664.146L413.054,665.117C418.261,675.151 435.267,695.766 443.45,705.02C428.491,699.731 412.783,694.643 397.166,691.682L396.356,691.376C395.117,687.47 395.094,682.757 394.737,678.658C393.766,667.509 393.482,656.263 392.218,645.145C391.82,640.915 391.515,636.749 391.486,632.5L391.244,631.8Z" style="fill:rgb(20,72,114);fill-rule:nonzero;"/>
    <path d="M391.244,631.8C401.53,631.554 412.09,634.732 422.289,635.998C419.078,644.673 416.484,654.283 412.51,662.58L411.657,664.407C406.089,673.108 402.12,682.857 396.356,691.376C395.117,687.47 395.094,682.757 394.737,678.658C393.766,667.509 393.482,656.263 392.218,645.145C391.82,640.915 391.515,636.749 391.486,632.5L391.244,631.8Z" style="fill:rgb(60,156,206);fill-rule:nonzero;"/>
    <path d="M391.244,631.8C401.53,631.554 412.09,634.732 422.289,635.998C419.078,644.673 416.484,654.283 412.51,662.58C405.759,652.386 398.165,642.738 391.486,632.5L391.244,631.8Z" style="fill:rgb(34,121,177);fill-rule:nonzero;"/>
    <path d="M423.093,636.065C428.595,634.658 444.684,635.203 450.683,635.612L451.226,638.474C452.085,643.486 452.778,648.585 453.827,653.555C450.891,658.6 447.807,663.627 445.151,668.823C443.039,672.955 441.089,678.917 438.267,682.481C433.633,667.073 429.073,650.997 423.093,636.065Z" style="fill:rgb(87,170,213);fill-rule:nonzero;"/>
    <path d="M223.925,904.782C233.33,895.376 243.331,886.496 253.078,877.447C266.947,864.43 281.006,851.62 295.255,839.018C296.928,847.489 288.489,868.466 287.834,878.565C297.018,874.009 303.584,864.715 312.818,860.69C307.761,869.709 301.983,878.407 296.51,887.18C292.851,893.044 289.402,899.391 285.345,904.969C263.282,905.756 241.198,908.237 219.134,908.572L223.925,904.782Z" style="fill:rgb(28,99,151);fill-rule:nonzero;"/>
    <path d="M287.834,878.565C297.018,874.009 303.584,864.715 312.818,860.69C307.761,869.709 301.983,878.407 296.51,887.18C292.851,893.044 289.402,899.391 285.345,904.969C263.282,905.756 241.198,908.237 219.134,908.572L223.925,904.782C224.765,904.858 225.641,905.019 226.474,904.804C233.776,902.921 241.574,898.68 248.534,895.662C261.629,889.984 274.859,884.51 287.834,878.565Z" style="fill:rgb(20,72,114);fill-rule:nonzero;"/>
    <path d="M312.818,860.69L313.729,860.751C323.263,872.015 332.016,884.035 341.81,895.056L342.495,895.049C342.805,902.447 341.374,909.812 341.491,917.223C320.635,919.065 298.384,920.032 277.377,921.128C276.341,921.502 275.961,921.474 274.894,921.395L274.693,920.635C277.189,915.188 281.833,909.893 285.345,904.969C289.402,899.391 292.851,893.044 296.51,887.18C301.983,878.407 307.761,869.709 312.818,860.69Z" style="fill:rgb(47,139,194);fill-rule:nonzero;"/>
    <path d="M341.81,895.056L342.495,895.049C342.805,902.447 341.374,909.812 341.491,917.223C320.635,919.065 298.384,920.032 277.377,921.128C280.664,919.366 287.516,918.068 291.644,916.344C308.389,909.35 324.908,901.639 341.81,895.056Z" style="fill:rgb(28,99,151);fill-rule:nonzero;"/>
    <path d="M334.577,669.11C336.05,669.252 336.213,669.143 337.184,670.343C342.646,677.096 347.229,686.757 351.804,694.328C355.778,700.905 360.918,707.813 364.146,714.721C365.128,716.138 366.137,717.399 367.33,718.645C372.441,720.184 377.561,720.873 382.73,722.057C391.262,724.011 399.741,726.283 408.215,728.473C408.533,732.625 409.404,736.758 409.954,740.889L412.848,763.98C413.296,767.453 414.24,771.172 414.336,774.649C414.364,775.661 414.074,776.303 413.54,777.135C398.446,764.146 384.432,750.332 370.041,736.584C364.996,731.763 352.478,721.401 349.543,715.876C346.33,709.826 344.939,701.682 342.943,695.118C340.293,686.405 337.253,677.815 334.577,669.11Z" style="fill:url(#_Linear2);fill-rule:nonzero;"/>
    <path d="M409.717,812.569C413.224,817.733 417.384,837.166 419.086,844.233C419.957,847.851 420.321,851.976 422.27,855.177L420.896,857.321C407.595,875.18 395.395,894.267 385.589,914.283C384.167,895.695 385.484,876.85 383.547,858.312C385.289,856.402 386.898,854.387 388.526,852.38C393.533,845.912 406.164,820.612 409.717,812.569Z" style="fill:rgb(28,99,151);fill-rule:nonzero;"/>
    <path d="M295.255,839.018C296.936,838.151 297.481,838.333 299.323,838.472C299,839.701 298.796,839.957 299.439,841.127C302.972,847.556 309.44,852.773 313.323,859.143L314.721,859.47C320.36,860.447 336.891,859.28 343.464,859.165C356.625,858.935 370.12,859.602 383.226,858.581C373.237,868.697 362.216,878.235 351.464,887.547C348.78,889.872 345.57,893.349 342.495,895.049L341.81,895.056C332.016,884.035 323.263,872.015 313.729,860.751L312.818,860.69C303.584,864.715 297.018,874.009 287.834,878.565C288.489,868.466 296.928,847.489 295.255,839.018Z" style="fill:rgb(23,85,131);fill-rule:nonzero;"/>
    <path d="M413.914,778.624C415.289,784.906 412.298,791.978 411.985,798.3C409.84,800.906 410.03,807.133 409.52,810.421C409.468,810.753 409.279,811.049 409.159,811.363C409.13,811.369 409.098,811.368 409.072,811.382C407.978,811.932 406.787,812.552 406.043,813.542C407.524,813.72 408.038,812.003 409.515,812.255L409.717,812.569C406.164,820.612 393.533,845.912 388.526,852.38C382.07,849.371 374.754,847.229 367.974,845.041C365.064,844.101 361.687,843.572 359.092,841.961C378.382,821.703 395.758,799.865 413.914,778.624Z" style="fill:url(#_Linear3);fill-rule:nonzero;"/>
    <path d="M392.218,645.145C393.482,656.263 393.766,667.509 394.737,678.658C395.094,682.757 395.117,687.47 396.356,691.376C388.516,687.597 381.037,683.055 373.167,679.295C365.24,675.509 356.954,672.526 348.952,668.903C343.23,666.313 337.678,663.065 331.737,661.019L334.117,658.834C338.492,658.553 349.61,654.558 354.907,653.23C367.314,650.12 379.704,647.695 392.218,645.145Z" style="fill:rgb(28,99,151);fill-rule:nonzero;"/>
    <path d="M409.915,811.749C421.433,805.518 437.655,797.893 450,793.296L450.837,793.942C445.313,807.171 438.805,820.05 432.785,833.063C429.811,839.492 426.096,849.532 422.27,855.177C420.321,851.976 419.957,847.851 419.086,844.233C417.384,837.166 413.224,817.733 409.717,812.569L409.515,812.255C408.038,812.003 407.524,813.72 406.043,813.542C406.787,812.552 407.978,811.932 409.072,811.382C409.098,811.368 409.13,811.369 409.159,811.363C409.279,811.049 409.468,810.753 409.52,810.421C410.03,807.133 409.84,800.906 411.985,798.3C411.44,802.805 410.75,807.288 409.915,811.749Z" style="fill:rgb(20,72,114);fill-rule:nonzero;"/>
    <path d="M364.146,714.721C369.121,709.829 383.007,702.225 389.6,697.967C392.002,696.416 394.329,694.2 396.882,692.984C399.599,704.98 406.414,716.316 408.215,728.473C399.741,726.283 391.262,724.011 382.73,722.057C377.561,720.873 372.441,720.184 367.33,718.645C366.137,717.399 365.128,716.138 364.146,714.721Z" style="fill:rgb(20,72,114);fill-rule:nonzero;"/>
    <path d="M299.323,838.472L358.474,842.304C355.702,843.094 353.111,844.513 350.37,845.498C342.097,848.427 333.892,851.538 325.757,854.831C322.127,856.272 318.115,857.568 314.721,859.47L313.323,859.143C309.44,852.773 302.972,847.556 299.439,841.127C298.796,839.957 299,839.701 299.323,838.472Z" style="fill:rgb(28,99,151);fill-rule:nonzero;"/>
    <path d="M476.752,832.087C478.309,846.789 478.026,861.713 479.916,876.38C471.579,869.982 463.362,863.434 455.265,856.735C461.687,852.292 471.532,833.94 476.752,832.087Z" style="fill:rgb(28,99,151);fill-rule:nonzero;"/>
    <path d="M732.73,656.922C737.307,656.95 741.883,656.95 746.46,656.922L746.682,657.435L747.461,658.074C761.996,679.953 776.147,702.077 789.914,724.448C792.832,728.982 796.186,766.407 797.184,774.393C800.368,788.112 802.776,802.07 805.557,815.879C807.491,825.485 809.828,835.008 811.791,844.597C813.236,850.021 816.232,854.958 818.889,859.861C833.184,886.239 834.711,883.542 830.865,913.939C829.727,922.11 828.378,930.343 827.932,938.584L828.034,945.808C827.943,947.426 827.91,949.078 827.721,950.687C826.151,951.048 823.709,949.563 822.178,948.932C808.543,943.179 794.869,937.522 781.155,931.959L744.409,944.458C737.06,946.976 729.287,949.213 722.281,952.566C719.449,953.181 716.671,953.844 714.057,955.142L711.559,956.151C708.649,945.758 705.219,935.345 701.642,925.162L700.518,925.073C686.874,927.529 672.982,929.111 659.246,931.016C648.695,932.479 638.056,934.393 627.468,935.426L627.111,934.906L627.25,934.629L647.538,897.401C653.388,886.409 659.556,875.565 665.495,864.617L667.409,864.339C676.715,862.716 685.988,860.582 695.226,858.606C699.516,857.688 704.73,855.948 709.091,856.046C710.072,855.172 710.438,854.958 710.771,853.657C712.968,845.081 713.846,833.368 715.141,824.381C717.775,806.111 721.068,787.687 722.218,769.26C721.897,768.278 721.601,767.453 720.779,766.771C715.758,762.607 703.214,757.048 696.88,753.692C688.738,749.378 679.344,745.332 671.891,739.943C665.881,735.596 660.902,728.396 656.001,722.821C648.822,714.654 641.421,706.606 634.494,698.231L632.549,696.15C640.064,691.232 667.689,658.231 671.765,657.526L672.402,657.917C677.152,656.107 710.84,658.229 720.632,657.069L732.73,656.922Z" style="fill:rgb(20,72,114);fill-rule:nonzero;"/>
    <path d="M732.73,656.922C737.307,656.95 741.883,656.95 746.46,656.922L746.682,657.435L747.461,658.074C761.996,679.953 776.147,702.077 789.914,724.448C792.832,728.982 796.186,766.407 797.184,774.393C796.347,774.573 796.126,774.569 795.32,774.496C786.717,773.724 777.496,774.532 768.802,774.5C767.892,775.98 767.016,776.977 765.719,778.129C756.754,789.667 749.824,802.379 741.955,814.65C736.782,810.884 728.16,776.389 723.539,771.14C722.719,770.209 723.26,771.061 722.549,769.859C722.433,769.663 722.328,769.46 722.218,769.26C721.897,768.278 721.601,767.453 720.779,766.771C715.758,762.607 703.214,757.048 696.88,753.692C688.738,749.378 679.344,745.332 671.891,739.943C665.881,735.596 660.902,728.396 656.001,722.821C648.822,714.654 641.421,706.606 634.494,698.231L632.549,696.15C640.064,691.232 667.689,658.231 671.765,657.526L672.402,657.917C677.152,656.107 710.84,658.229 720.632,657.069L732.73,656.922Z" style="fill:rgb(28,99,151);fill-rule:nonzero;"/>
    <path d="M732.73,656.922C737.307,656.95 741.883,656.95 746.46,656.922L746.682,657.435L747.461,658.074C761.996,679.953 776.147,702.077 789.914,724.448C788.896,725.017 789.076,725.182 787.851,724.86C783.033,723.595 778.215,721.103 773.629,719.129C761.54,713.927 745.545,706 733.485,702.368C724.738,707.511 716.054,712.76 707.435,718.115C703.147,720.756 698.876,723.734 694.456,726.122L694.382,726.658C689.866,725.511 685.582,722.968 681.365,721.009C670.555,715.986 660.045,710.599 649.334,705.397C645.682,703.623 640.467,702.172 637.267,699.826C636.621,699.353 636.05,698.978 635.324,698.626L634.494,698.231L632.549,696.15C640.064,691.232 667.689,658.231 671.765,657.526L672.402,657.917C677.152,656.107 710.84,658.229 720.632,657.069L732.73,656.922Z" style="fill:rgb(34,121,177);fill-rule:nonzero;"/>
    <path d="M671.765,657.526L672.402,657.917L672.477,658.372C674.622,668.309 678.654,678.417 681.903,688.06L694.456,726.122L694.382,726.658C689.866,725.511 685.582,722.968 681.365,721.009C670.555,715.986 660.045,710.599 649.334,705.397C645.682,703.623 640.467,702.172 637.267,699.826C636.621,699.353 636.05,698.978 635.324,698.626L634.494,698.231L632.549,696.15C640.064,691.232 667.689,658.231 671.765,657.526Z" style="fill:rgb(20,72,114);fill-rule:nonzero;"/>
    <path d="M732.73,656.922C737.307,656.95 741.883,656.95 746.46,656.922L746.682,657.435C743.478,672.653 738.152,687.336 734.387,702.411C718.175,691.988 703.182,679.649 687.486,668.482C682.868,665.197 677.625,660.706 672.477,658.372L672.402,657.917C677.152,656.107 710.84,658.229 720.632,657.069L732.73,656.922Z" style="fill:rgb(87,170,213);fill-rule:nonzero;"/>
    <path d="M634.494,698.231L635.324,698.626C636.05,698.978 636.621,699.353 637.267,699.826C640.467,702.172 645.682,703.623 649.334,705.397C660.045,710.599 670.555,715.986 681.365,721.009C685.582,722.968 689.866,725.511 694.382,726.658C706.549,734.731 719.461,741.673 731.524,749.878C736.024,753.221 740.858,756.071 745.408,759.344C752.138,764.185 759.657,771.205 767.346,774.348C767.243,775.784 766.423,776.913 765.719,778.129C756.754,789.667 749.824,802.379 741.955,814.65C736.782,810.884 728.16,776.389 723.539,771.14C722.719,770.209 723.26,771.061 722.549,769.859C722.433,769.663 722.328,769.46 722.218,769.26C721.897,768.278 721.601,767.453 720.779,766.771C715.758,762.607 703.214,757.048 696.88,753.692C688.738,749.378 679.344,745.332 671.891,739.943C665.881,735.596 660.902,728.396 656.001,722.821C648.822,714.654 641.421,706.606 634.494,698.231Z" style="fill:rgb(16,56,90);fill-rule:nonzero;"/>
    <path d="M731.524,749.878C731.599,749.649 731.679,749.42 731.75,749.189C732.589,746.434 732.123,742.212 732.232,739.293C732.46,733.203 733.458,707.743 734.831,704.233C739.745,713.316 743.901,722.704 748.276,732.045C754.854,746.088 761.441,759.985 767.346,774.348C759.657,771.205 752.138,764.185 745.408,759.344C740.858,756.071 736.024,753.221 731.524,749.878Z" style="fill:rgb(23,85,131);fill-rule:nonzero;"/>
    <path d="M722.218,769.26C722.328,769.46 722.433,769.663 722.549,769.859C723.26,771.061 722.719,770.209 723.539,771.14C728.16,776.389 736.782,810.884 741.955,814.65L742.094,814.919C740.493,822.83 743.851,850.746 741.383,854.827C736.304,860.405 726.609,872.788 723.303,879.422L723.003,879.514L722.875,879.837C719.669,882.98 704.803,918.05 701.642,925.162L700.518,925.073C686.874,927.529 672.982,929.111 659.246,931.016C648.695,932.479 638.056,934.393 627.468,935.426L627.111,934.906L627.25,934.629L647.538,897.401C653.388,886.409 659.556,875.565 665.495,864.617L667.409,864.339C676.715,862.716 685.988,860.582 695.226,858.606C699.516,857.688 704.73,855.948 709.091,856.046C710.072,855.172 710.438,854.958 710.771,853.657C712.968,845.081 713.846,833.368 715.141,824.381C717.775,806.111 721.068,787.687 722.218,769.26Z" style="fill:rgb(20,72,114);fill-rule:nonzero;"/>
    <path d="M709.091,856.046L709.132,856.648C705.097,864.657 699.422,872.294 694.526,879.805C691.568,886.82 688.903,893.967 685.927,900.964L686.022,901.841C676.945,908.723 660.195,916.476 649.765,922.266C644.249,925.327 632.469,933.153 627.25,934.629L647.538,897.401C653.388,886.409 659.556,875.565 665.495,864.617L667.409,864.339C676.715,862.716 685.988,860.582 695.226,858.606C699.516,857.688 704.73,855.948 709.091,856.046Z" style="fill:rgb(34,121,177);fill-rule:nonzero;"/>
    <path d="M709.091,856.046L709.132,856.648C705.097,864.657 699.422,872.294 694.526,879.805C685.535,875.097 675.447,870.542 667.409,864.339C676.715,862.716 685.988,860.582 695.226,858.606C699.516,857.688 704.73,855.948 709.091,856.046Z" style="fill:rgb(47,139,194);fill-rule:nonzero;"/>
    <path d="M665.495,864.617L667.409,864.339C675.447,870.542 685.535,875.097 694.526,879.805C691.568,886.82 688.903,893.967 685.927,900.964C680.204,889.364 672.176,875.796 665.495,864.617Z" style="fill:rgb(28,99,151);fill-rule:nonzero;"/>
    <path d="M711.415,855.882C721.068,854.203 731.567,855.151 741.383,854.827C736.304,860.405 726.609,872.788 723.303,879.422L723.003,879.514L722.666,878.651C720.147,871.124 715.26,862.862 711.415,855.882Z" style="fill:rgb(28,99,151);fill-rule:nonzero;"/>
    <path d="M797.184,774.393C800.368,788.112 802.776,802.07 805.557,815.879C807.491,825.485 809.828,835.008 811.791,844.597L810.906,845.521C811.408,846.725 812.101,847.556 811.674,848.827C802.881,851.438 788.48,851.445 779.125,851.983L779.522,853.25L778.176,852.927C774.479,857.14 761.956,896.064 757.566,905.076L756.914,904.399C752.589,904.689 728.498,883.507 723.303,879.422C726.609,872.788 736.304,860.405 741.383,854.827C743.851,850.746 740.493,822.83 742.094,814.919L741.955,814.65C749.824,802.379 756.754,789.667 765.719,778.129C767.016,776.977 767.892,775.98 768.802,774.5C777.496,774.532 786.717,773.724 795.32,774.496C796.126,774.569 796.347,774.573 797.184,774.393Z" style="fill:rgb(60,156,206);fill-rule:nonzero;"/>
    <path d="M765.719,778.129C767.016,776.977 767.892,775.98 768.802,774.5C768.915,775.814 768.86,776.872 768.682,778.165L768.914,778.722L778.276,851.938C773.53,845.89 767.333,840.439 761.996,834.856C756.324,828.923 750.886,822.317 744.873,816.762C744.018,815.973 743.275,815.138 742.094,814.919L741.955,814.65C749.824,802.379 756.754,789.667 765.719,778.129Z" style="fill:rgb(28,99,151);fill-rule:nonzero;"/>
    <path d="M797.184,774.393C800.368,788.112 802.776,802.07 805.557,815.879C807.491,825.485 809.828,835.008 811.791,844.597L810.906,845.521C801.7,832.999 794.086,819.26 785.847,806.101C780.765,797.984 774.161,789.672 770.414,780.911C769.984,779.907 769.855,779.356 768.914,778.722L768.682,778.165C768.86,776.872 768.915,775.814 768.802,774.5C777.496,774.532 786.717,773.724 795.32,774.496C796.126,774.569 796.347,774.573 797.184,774.393Z" style="fill:rgb(34,121,177);fill-rule:nonzero;"/>
    <path d="M756.914,904.399C753.958,896.838 743.6,861.679 742.927,854.512C744.845,852.598 774.489,851.984 779.125,851.983L779.522,853.25L778.176,852.927C774.479,857.14 761.956,896.064 757.566,905.076L756.914,904.399Z" style="fill:rgb(34,121,177);fill-rule:nonzero;"/>
    <path d="M810.906,845.521L811.791,844.597C813.236,850.021 816.232,854.958 818.889,859.861C833.184,886.239 834.711,883.542 830.865,913.939C829.727,922.11 828.378,930.343 827.932,938.584L828.034,945.808C827.943,947.426 827.91,949.078 827.721,950.687C823.626,947.674 817.034,937.242 813.399,932.587C804.497,921.189 795.052,910.073 786.595,898.347L786.313,897.401C785.1,895.018 784.857,891.331 784.402,888.668C782.81,879.368 780.954,860.743 778.176,852.927L779.522,853.25L779.125,851.983C788.48,851.445 802.881,851.438 811.674,848.827C812.101,847.556 811.408,846.725 810.906,845.521Z" style="fill:rgb(28,99,151);fill-rule:nonzero;"/>
    <path d="M821.928,883.332C824.52,887.729 826.696,930.957 827.932,938.584L828.034,945.808C827.943,947.426 827.91,949.078 827.721,950.687C823.626,947.674 817.034,937.242 813.399,932.587C804.497,921.189 795.052,910.073 786.595,898.347L786.313,897.401C798.205,893.614 810.698,888.786 821.928,883.332Z" style="fill:rgb(47,139,194);fill-rule:nonzero;"/>
    <path d="M779.522,853.25C787.641,858.475 795.498,864.163 803.407,869.704C809.611,874.05 816.267,878.294 821.928,883.332C810.698,888.786 798.205,893.614 786.313,897.401C785.1,895.018 784.857,891.331 784.402,888.668C782.81,879.368 780.954,860.743 778.176,852.927L779.522,853.25Z" style="fill:rgb(60,156,206);fill-rule:nonzero;"/>
    <path d="M723.003,879.514L723.303,879.422C728.498,883.507 752.589,904.689 756.914,904.399L757.566,905.076L757.419,905.661C749.626,915.685 740.309,924.978 731.774,934.398C725.904,940.875 719.918,948.749 713.254,954.31L714.057,955.142L711.559,956.151C708.649,945.758 705.219,935.345 701.642,925.162C704.803,918.05 719.669,882.98 722.875,879.837L723.003,879.514Z" style="fill:rgb(47,139,194);fill-rule:nonzero;"/>
    <path d="M701.642,925.162C704.803,918.05 719.669,882.98 722.875,879.837C722.408,888.533 721.261,897.351 720.058,905.979C719.047,913.225 712.307,950.462 713.254,954.31L714.057,955.142L711.559,956.151C708.649,945.758 705.219,935.345 701.642,925.162Z" style="fill:rgb(28,99,151);fill-rule:nonzero;"/>
    <path d="M757.566,905.076C761.956,896.064 774.479,857.14 778.176,852.927C780.954,860.743 782.81,879.368 784.402,888.668C784.857,891.331 785.1,895.018 786.313,897.401L786.595,898.347C784.561,902.653 781.684,925.748 781.297,931.641C776.203,927.527 772.487,922.414 768.256,917.478C764.788,913.431 761.094,909.523 757.419,905.661L757.566,905.076Z" style="fill:rgb(16,56,90);fill-rule:nonzero;"/>
    <path d="M892.95,374.792C899.284,379.89 904.707,387.844 909.972,394.088C921.734,408.037 933.384,422.435 946.123,435.508L948.399,437.437L948.891,437.693C950.791,440.703 972.496,509.497 972.402,510.737C969.069,515.582 966.615,521.509 963.987,526.779L948.893,557.102C946.269,562.374 943.873,568.374 940.13,572.931C938.468,574.955 936.154,576.373 933.899,577.648C924.554,584.387 915.161,591.057 905.72,597.658C900.733,601.204 895.744,605.284 890.476,608.351C884.707,611.708 878.316,614.348 872.276,617.205L839.079,632.893C829.858,637.282 819.945,643.43 810.152,646.218C803.764,648.036 796.865,648.895 790.323,650.064C776.057,652.615 761.592,654.861 747.461,658.074L746.682,657.435L746.46,656.922L746.437,653.715C747.318,653.167 748.348,652.604 749.054,651.827C750.957,649.732 752.431,646.188 753.998,643.708C758.321,636.863 770.622,617.278 776.095,612.657C777.077,605.711 783.012,597.974 786.396,591.867C790.295,584.831 814.071,543.032 813.023,538.774C813.531,538.619 814.559,538.584 815.1,538.526L816.385,538.323L815.008,538.072L814.587,536.978C814.39,531.362 818.118,485.464 819.315,483.701L819.344,483.135L852.874,475.253C862.124,473.092 871.736,471.397 880.538,467.793L880.942,467.412C880.767,459.356 880.108,432.799 878.146,426.41L878.556,425.682L878.451,424.904C871.24,410.872 862.989,397.456 855.757,383.478C862.036,385.066 871.245,389.828 878.022,392.291C882.617,388.21 890.024,380.16 892.95,374.792Z" style="fill:rgb(28,99,151);fill-rule:nonzero;"/>
    <path d="M892.95,374.792C899.284,379.89 904.707,387.844 909.972,394.088C921.734,408.037 933.384,422.435 946.123,435.508L948.399,437.437L948.891,437.693C950.791,440.703 972.496,509.497 972.402,510.737L971.378,510.288C964.286,512.745 957.365,516.28 950.515,519.367C944.73,521.973 938.538,524.352 932.969,527.36C929.375,526.043 910.25,505.246 904.636,500.505L904.127,499.604C905.899,497.254 926.032,488.355 929.964,486.504C918.962,481.735 907.421,477.976 896.14,473.913C891.074,472.088 885.191,470.489 880.538,467.793L880.942,467.412C880.767,459.356 880.108,432.799 878.146,426.41L878.556,425.682L878.451,424.904C871.24,410.872 862.989,397.456 855.757,383.478C862.036,385.066 871.245,389.828 878.022,392.291C882.617,388.21 890.024,380.16 892.95,374.792Z" style="fill:rgb(87,170,213);fill-rule:nonzero;"/>
    <path d="M892.95,374.792C899.284,379.89 904.707,387.844 909.972,394.088C921.734,408.037 933.384,422.435 946.123,435.508L945.587,435.788L945.807,436.609C944.829,436.857 945.084,436.92 944.257,436.761C922.44,432.572 900.409,429.676 878.556,425.682L878.451,424.904C871.24,410.872 862.989,397.456 855.757,383.478C862.036,385.066 871.245,389.828 878.022,392.291C882.617,388.21 890.024,380.16 892.95,374.792Z" style="fill:rgb(47,139,194);fill-rule:nonzero;"/>
    <path d="M879.048,394.085C901.309,407.802 923.891,421.259 945.587,435.788L945.807,436.609C944.829,436.857 945.084,436.92 944.257,436.761C922.44,432.572 900.409,429.676 878.556,425.682L878.451,424.904C879.218,414.626 878.688,404.369 879.048,394.085Z" style="fill:rgb(87,170,213);fill-rule:nonzero;"/>
    <path d="M948.891,437.693C950.791,440.703 972.496,509.497 972.402,510.737L971.378,510.288C964.286,512.745 957.365,516.28 950.515,519.367C944.73,521.973 938.538,524.352 932.969,527.36C933.627,520.178 931.314,495.466 930.281,487.461C934.239,471.577 944.736,453.888 948.891,437.693Z" style="fill:rgb(34,121,177);fill-rule:nonzero;"/>
    <path d="M930.281,487.461C935.062,489.921 970.478,508.614 971.378,510.288C964.286,512.745 957.365,516.28 950.515,519.367C944.73,521.973 938.538,524.352 932.969,527.36C933.627,520.178 931.314,495.466 930.281,487.461Z" style="fill:rgb(60,156,206);fill-rule:nonzero;"/>
    <path d="M878.556,425.682C900.409,429.676 922.44,432.572 944.257,436.761C945.084,436.92 944.829,436.857 945.807,436.609L945.587,435.788L946.123,435.508L948.399,437.437C942.915,440.731 936.703,443.131 930.844,445.691L903.38,457.658C896.399,460.708 888.165,465.33 880.942,467.412C880.767,459.356 880.108,432.799 878.146,426.41L878.556,425.682Z" style="fill:rgb(34,121,177);fill-rule:nonzero;"/>
    <path d="M819.344,483.135L852.874,475.253C862.124,473.092 871.736,471.397 880.538,467.793C885.191,470.489 891.074,472.088 896.14,473.913C907.421,477.976 918.962,481.735 929.964,486.504C926.032,488.355 905.899,497.254 904.127,499.604L904.636,500.505C903.457,501.9 901.808,501.997 900.559,503.264C898.777,505.073 897.383,507.638 895.725,509.634C893.063,512.839 874.537,534.561 872.185,535.204L870.195,534.352L871.895,536.438L835.216,537.586C829.019,537.783 822.527,537.616 816.385,538.323L815.008,538.072L814.587,536.978C814.39,531.362 818.118,485.464 819.315,483.701L819.344,483.135Z" style="fill:url(#_Linear4);fill-rule:nonzero;"/>
    <path d="M819.315,483.701C836.019,500.842 852.979,517.725 870.195,534.352L871.895,536.438L835.216,537.586C829.019,537.783 822.527,537.616 816.385,538.323L815.008,538.072L814.587,536.978C814.39,531.362 818.118,485.464 819.315,483.701Z" style="fill:rgb(136,189,219);fill-rule:nonzero;"/>
    <path d="M904.088,587.392C912.631,584.515 922.553,582.717 930.595,578.698C931.79,578.101 932.569,577.783 933.899,577.648C924.554,584.387 915.161,591.057 905.72,597.658C900.733,601.204 895.744,605.284 890.476,608.351C884.707,611.708 878.316,614.348 872.276,617.205L839.079,632.893C829.858,637.282 819.945,643.43 810.152,646.218C803.764,648.036 796.865,648.895 790.323,650.064C776.057,652.615 761.592,654.861 747.461,658.074L746.682,657.435L746.46,656.922L746.437,653.715C747.318,653.167 748.348,652.604 749.054,651.827C750.957,649.732 752.431,646.188 753.998,643.708C758.321,636.863 770.622,617.278 776.095,612.657C784.305,609.314 794.205,607.485 802.835,605.315C817.217,601.699 832.099,597.4 846.705,594.964C865.261,591.868 884.19,590.874 902.753,587.729L904.088,587.392Z" style="fill:rgb(23,48,71);fill-rule:nonzero;"/>
    <path d="M872.861,536.417L891.87,568.939C895.504,575.121 899.569,581.312 902.753,587.729C884.19,590.874 865.261,591.868 846.705,594.964C832.099,597.4 817.217,601.699 802.835,605.315C794.205,607.485 784.305,609.314 776.095,612.657C777.077,605.711 783.012,597.974 786.396,591.867C790.295,584.831 814.071,543.032 813.023,538.774C813.531,538.619 814.559,538.584 815.1,538.526C826.839,556.342 837.314,574.927 848.781,592.905C855.149,579.489 860.592,565.387 866.35,551.687C868.481,546.616 870.334,541.297 872.861,536.417Z" style="fill:rgb(23,85,131);fill-rule:nonzero;"/>
    <path d="M971.378,510.288L972.402,510.737C969.069,515.582 966.615,521.509 963.987,526.779L948.893,557.102C946.269,562.374 943.873,568.374 940.13,572.931C938.468,574.955 936.154,576.373 933.899,577.648C932.569,577.783 931.79,578.101 930.595,578.698C922.553,582.717 912.631,584.515 904.088,587.392C910.144,573.428 917.135,559.908 923.81,546.236C926.824,540.064 930.148,533.876 932.663,527.484L932.969,527.36C938.538,524.352 944.73,521.973 950.515,519.367C957.365,516.28 964.286,512.745 971.378,510.288Z" style="fill:rgb(23,85,131);fill-rule:nonzero;"/>
    <path d="M904.636,500.505C910.25,505.246 929.375,526.043 932.969,527.36L932.663,527.484C926.596,527.665 920.344,528.951 914.345,529.895L885.864,534.395C881.504,535.08 876.256,536.56 871.895,536.438L870.195,534.352L872.185,535.204C874.537,534.561 893.063,512.839 895.725,509.634C897.383,507.638 898.777,505.073 900.559,503.264C901.808,501.997 903.457,501.9 904.636,500.505Z" style="fill:rgb(47,139,194);fill-rule:nonzero;"/>
    <path d="M462.396,499.369C463.08,499.745 464.001,500.114 464.585,500.615C473.89,517.37 483.008,534.564 491.467,551.763L491.567,552.289C482.242,558.711 471.783,563.387 462.5,569.865C461.893,570.256 461.296,570.712 460.628,570.988L459.695,571.652L460.47,572.133C454.312,579.698 451.313,590.374 446.389,598.857L447.921,599.449C448.235,607.635 449.116,615.812 449.838,623.97C450.167,627.697 450.852,631.893 450.683,635.612C444.684,635.203 428.595,634.658 423.093,636.065L422.374,635.63L422.289,635.998C412.09,634.732 401.53,631.554 391.244,631.8L391.486,632.5C391.515,636.749 391.82,640.915 392.218,645.145C379.704,647.695 367.314,650.12 354.907,653.23C349.61,654.558 338.492,658.553 334.117,658.834C349.935,639.887 366.286,621.378 381.902,602.26C363.603,588.35 346.303,572.991 328.329,558.64C321.722,566.193 316.444,575.643 309.314,582.584L309.148,582.417C308.838,580.717 317.264,571.102 318.921,568.948C321.521,565.568 329.288,557.391 330.76,554.843C332.872,551.186 345.607,517.861 345.954,513.55C346.079,511.997 345.546,511.662 344.618,510.527L344.988,510.38L346.438,511.167L346.517,511.429C351.095,512.957 355.503,515.792 359.744,518.087C368.986,523.087 384.686,532.317 394.14,535.848L394.165,535.367C398.514,532.59 404.151,531.156 408.972,529.342C416.893,526.432 424.711,523.27 432.427,519.855L432.827,519.783C437.276,516.555 441.73,513.407 446.358,510.437C451.452,507.167 457.89,503.92 462.109,499.564L462.396,499.369Z" style="fill:rgb(20,72,114);fill-rule:nonzero;"/>
    <path d="M344.618,510.527L344.988,510.38L346.438,511.167L346.517,511.429C351.095,512.957 355.503,515.792 359.744,518.087C368.986,523.087 384.686,532.317 394.14,535.848C392.965,544.901 384.679,598 382.343,601.976C386.739,607.343 394.651,610.479 399.842,615.231C396.897,620.667 393.642,626.102 391.244,631.8L391.486,632.5C391.515,636.749 391.82,640.915 392.218,645.145C379.704,647.695 367.314,650.12 354.907,653.23C349.61,654.558 338.492,658.553 334.117,658.834C349.935,639.887 366.286,621.378 381.902,602.26C363.603,588.35 346.303,572.991 328.329,558.64C321.722,566.193 316.444,575.643 309.314,582.584L309.148,582.417C308.838,580.717 317.264,571.102 318.921,568.948C321.521,565.568 329.288,557.391 330.76,554.843C332.872,551.186 345.607,517.861 345.954,513.55C346.079,511.997 345.546,511.662 344.618,510.527Z" style="fill:rgb(16,56,90);fill-rule:nonzero;"/>
    <path d="M346.517,511.429C351.095,512.957 355.503,515.792 359.744,518.087C368.986,523.087 384.686,532.317 394.14,535.848C392.965,544.901 384.679,598 382.343,601.976C379.905,598.469 346.798,514.614 346.517,511.429Z" style="fill:rgb(28,99,151);fill-rule:nonzero;"/>
    <path d="M462.396,499.369C463.08,499.745 464.001,500.114 464.585,500.615C473.89,517.37 483.008,534.564 491.467,551.763L491.567,552.289C482.242,558.711 471.783,563.387 462.5,569.865L462.584,563.305C456.011,557.116 437.309,528.533 432.827,519.783C437.276,516.555 441.73,513.407 446.358,510.437C451.452,507.167 457.89,503.92 462.109,499.564L462.396,499.369Z" style="fill:rgb(28,99,151);fill-rule:nonzero;"/>
    <path d="M462.584,563.305C463.659,553.698 463.422,503.311 464.585,500.615C473.89,517.37 483.008,534.564 491.467,551.763L491.567,552.289C482.242,558.711 471.783,563.387 462.5,569.865L462.584,563.305Z" style="fill:rgb(23,48,71);fill-rule:nonzero;"/>
    <path d="M416.086,589.358C417.011,589.68 417.837,589.904 418.8,590.077C427.023,591.55 437.234,597.051 446.109,599.018L446.389,598.857L447.921,599.449C448.235,607.635 449.116,615.812 449.838,623.97C450.167,627.697 450.852,631.893 450.683,635.612C444.684,635.203 428.595,634.658 423.093,636.065L422.374,635.63L422.289,635.998C412.09,634.732 401.53,631.554 391.244,631.8C393.642,626.102 396.897,620.667 399.842,615.231C404.805,606.791 409.87,598.413 415.037,590.096L416.086,589.358Z" style="fill:rgb(87,170,213);fill-rule:nonzero;"/>
    <path d="M415.037,590.096C416.577,597.494 420.77,629.054 423.064,633.444L422.374,635.63L422.289,635.998C412.09,634.732 401.53,631.554 391.244,631.8C393.642,626.102 396.897,620.667 399.842,615.231C404.805,606.791 409.87,598.413 415.037,590.096Z" style="fill:rgb(47,139,194);fill-rule:nonzero;"/>
    <path d="M446.389,598.857L447.921,599.449C448.235,607.635 449.116,615.812 449.838,623.97C450.167,627.697 450.852,631.893 450.683,635.612C444.684,635.203 428.595,634.658 423.093,636.065L422.374,635.63L423.064,633.444C429.075,622.122 437.769,608.741 446.109,599.018L446.389,598.857Z" style="fill:rgb(34,121,177);fill-rule:nonzero;"/>
    <path d="M432.427,519.855L432.827,519.783C437.309,528.533 456.011,557.116 462.584,563.305L462.5,569.865C461.893,570.256 461.296,570.712 460.628,570.988L394.14,535.848L394.165,535.367C398.514,532.59 404.151,531.156 408.972,529.342C416.893,526.432 424.711,523.27 432.427,519.855Z" style="fill:rgb(28,99,151);fill-rule:nonzero;"/>
    <path d="M416.086,589.358C423.549,585.46 431.819,582.611 439.633,579.442C446.151,576.798 452.916,573.497 459.695,571.652L460.47,572.133C454.312,579.698 451.313,590.374 446.389,598.857L446.109,599.018C437.234,597.051 427.023,591.55 418.8,590.077C417.837,589.904 417.011,589.68 416.086,589.358Z" style="fill:rgb(136,189,219);fill-rule:nonzero;"/>
    <path d="M304.408,433.721C312.587,441.471 314.925,453.945 321.738,462.587L321.838,462.932C329.753,474.686 342.722,496.371 344.988,510.38L344.618,510.527C345.546,511.662 346.079,511.997 345.954,513.55C345.607,517.861 332.872,551.186 330.76,554.843C329.288,557.391 321.521,565.568 318.921,568.948C317.264,571.102 308.838,580.717 309.148,582.417L309.314,582.584C307.706,585.132 305.697,587.548 303.888,589.965C281.577,582.379 259.017,575.115 236.947,566.866C236.686,565.999 236.48,565.132 236.272,564.251C239.089,561.888 262.299,554.008 267.362,552.089L268.23,552.245C272.635,548.714 280.049,534.474 283.318,529.016L283.859,527.724C282.908,527.563 281.957,527.406 281.005,527.255L281.328,526.694C282.453,526.351 281.967,526.661 282.764,525.728C283.226,517.909 280.757,504.254 279.787,495.837C279.219,494.501 301.756,440.419 304.408,433.721Z" style="fill:rgb(23,48,71);fill-rule:nonzero;"/>
    <path d="M304.408,433.721C312.587,441.471 314.925,453.945 321.738,462.587L321.838,462.932C329.753,474.686 342.722,496.371 344.988,510.38L344.618,510.527C323.609,505.529 302.457,501.156 281.564,495.668L281.38,494.928L279.787,495.837C279.219,494.501 301.756,440.419 304.408,433.721Z" style="fill:rgb(47,139,194);fill-rule:nonzero;"/>
    <path d="M304.408,433.721C312.587,441.471 314.925,453.945 321.738,462.587L321.838,462.932C311.618,469.844 302.026,478.877 292.426,486.698C289.095,489.412 285.307,493.197 281.38,494.928L279.787,495.837C279.219,494.501 301.756,440.419 304.408,433.721Z" style="fill:rgb(28,99,151);fill-rule:nonzero;"/>
    <path d="M283.859,527.724C291.986,528.619 299.046,533.132 307.444,531.976C305.55,536.875 298.881,559.805 296.789,561.995L296.153,562.127C289.698,558.381 276.143,555.668 268.23,552.245C272.635,548.714 280.049,534.474 283.318,529.016L283.859,527.724Z" style="fill:rgb(23,85,131);fill-rule:nonzero;"/>
    <path d="M283.859,527.724C291.986,528.619 299.046,533.132 307.444,531.976C305.55,536.875 298.881,559.805 296.789,561.995L296.153,562.127C292.939,551.863 288.049,538.645 283.318,529.016L283.859,527.724Z" style="fill:rgb(28,99,151);fill-rule:nonzero;"/>
    <path d="M279.787,495.837L281.38,494.928L281.564,495.668L280.518,496.357C280.933,497.261 281.115,497.483 281.756,498.188C285.792,502.62 306.754,528.07 307.444,531.976C299.046,533.132 291.986,528.619 283.859,527.724C282.908,527.563 281.957,527.406 281.005,527.255L281.328,526.694C282.453,526.351 281.967,526.661 282.764,525.728C283.226,517.909 280.757,504.254 279.787,495.837Z" style="fill:rgb(23,85,131);fill-rule:nonzero;"/>
    <path d="M220.959,529.987C234.529,529.294 248.1,528.117 261.671,527.322C268.107,526.945 274.919,526.116 281.328,526.694L281.005,527.255C281.957,527.406 282.908,527.563 283.859,527.724L283.318,529.016C280.049,534.474 272.635,548.714 268.23,552.245L267.362,552.089C262.299,554.008 239.089,561.888 236.272,564.251C236.48,565.132 236.686,565.999 236.947,566.866C233.658,578.926 230.619,591.04 228.586,603.384L228.39,604.582C221.233,602.752 212.476,606.625 205.213,606.754C203.704,606.78 203.33,606.279 202.369,605.213L201.183,606.313L201.166,606.758L197.292,611.08C190.796,611.745 178.897,617.388 171.535,619.215C170.737,619.712 171.197,619.525 170.123,619.693L169.792,617.774C170.481,608.067 171.526,598.361 172.44,588.672C172.942,583.348 173.04,577.512 174.132,572.303C174.368,571.177 174.835,570.462 175.519,569.562C179.651,566.577 183.537,562.195 187.236,558.669C197.021,549.342 206.606,539.563 216.851,530.761L217.499,530.162L220.959,529.987Z" style="fill:rgb(28,99,151);fill-rule:nonzero;"/>
    <path d="M202.98,568.376L203.363,568.471C208.206,576.11 213.869,583.505 218.986,591.005C221.326,594.435 223.683,599.28 226.483,602.27C227.064,602.89 227.813,603.107 228.586,603.384L228.39,604.582C221.233,602.752 212.476,606.625 205.213,606.754C203.704,606.78 203.33,606.279 202.369,605.213L201.183,606.313L201.166,606.758L197.292,611.08C190.796,611.745 178.897,617.388 171.535,619.215C170.737,619.712 171.197,619.525 170.123,619.693L169.792,617.774C170.481,608.067 171.526,598.361 172.44,588.672C172.942,583.348 173.04,577.512 174.132,572.303C174.368,571.177 174.835,570.462 175.519,569.562C175.786,570.45 176.106,571.343 176.266,572.256C184.401,570.726 192.846,569.901 201.052,568.671L202.98,568.376Z" style="fill:rgb(23,85,131);fill-rule:nonzero;"/>
    <path d="M175.519,569.562C175.786,570.45 176.106,571.343 176.266,572.256C177.744,575.671 187.711,588.609 190.63,591.86L190.528,592.319C191.995,596.829 198.098,602.314 201.183,606.313L201.166,606.758L197.292,611.08C190.796,611.745 178.897,617.388 171.535,619.215C170.737,619.712 171.197,619.525 170.123,619.693L169.792,617.774C170.481,608.067 171.526,598.361 172.44,588.672C172.942,583.348 173.04,577.512 174.132,572.303C174.368,571.177 174.835,570.462 175.519,569.562Z" style="fill:rgb(23,85,131);fill-rule:nonzero;"/>
    <path d="M190.528,592.319C191.995,596.829 198.098,602.314 201.183,606.313L201.166,606.758L197.292,611.08C190.796,611.745 178.897,617.388 171.535,619.215C171.88,615.846 187.597,596.294 190.528,592.319Z" style="fill:rgb(16,56,90);fill-rule:nonzero;"/>
    <path d="M176.266,572.256C184.401,570.726 192.846,569.901 201.052,568.671C201.824,569.034 202.551,569.085 202.85,569.942C203.176,570.881 203.041,571.586 202.93,572.545C200.276,573.707 193.023,588.333 190.63,591.86C187.711,588.609 177.744,575.671 176.266,572.256Z" style="fill:rgb(20,72,114);fill-rule:nonzero;"/>
    <path d="M190.63,591.86C193.023,588.333 200.276,573.707 202.93,572.545C202.993,580.356 204.196,598.467 202.369,605.213L201.183,606.313C198.098,602.314 191.995,596.829 190.528,592.319L190.63,591.86Z" style="fill:rgb(23,48,71);fill-rule:nonzero;"/>
    <path d="M217.499,530.162C224.203,541.077 229.294,552.841 235.769,563.886C227.502,564.416 211.183,566.432 203.363,568.471L202.98,568.376L201.052,568.671C192.846,569.901 184.401,570.726 176.266,572.256C176.106,571.343 175.786,570.45 175.519,569.562C179.651,566.577 183.537,562.195 187.236,558.669C197.021,549.342 206.606,539.563 216.851,530.761L217.499,530.162Z" style="fill:rgb(34,121,177);fill-rule:nonzero;"/>
    <path d="M216.851,530.761C214.841,539.612 200.827,560.612 202.98,568.376L201.052,568.671C192.846,569.901 184.401,570.726 176.266,572.256C176.106,571.343 175.786,570.45 175.519,569.562C179.651,566.577 183.537,562.195 187.236,558.669C197.021,549.342 206.606,539.563 216.851,530.761Z" style="fill:rgb(28,99,151);fill-rule:nonzero;"/>
    <path d="M220.959,529.987C234.529,529.294 248.1,528.117 261.671,527.322C268.107,526.945 274.919,526.116 281.328,526.694L281.005,527.255C281.957,527.406 282.908,527.563 283.859,527.724L283.318,529.016C280.049,534.474 272.635,548.714 268.23,552.245L267.362,552.089C259.644,546.867 222.259,534.839 220.248,530.826L220.959,529.987Z" style="fill:rgb(34,121,177);fill-rule:nonzero;"/>
    <path d="M813.023,538.774C814.071,543.032 790.295,584.831 786.396,591.867C783.012,597.974 777.077,605.711 776.095,612.657C770.622,617.278 758.321,636.863 753.998,643.708C752.431,646.188 750.957,649.732 749.054,651.827C748.348,652.604 747.318,653.167 746.437,653.715L746.46,656.922C741.883,656.95 737.307,656.95 732.73,656.922C736.77,656.189 741.043,656.406 745.14,656.38C734.717,638.712 728.047,618.433 717.899,600.534L718.34,599.569L718.516,598.914C733.204,583.115 746.199,565.795 761.135,550.171L761.498,549.428C778.558,545.426 795.861,542.324 813.023,538.774Z" style="fill:rgb(20,72,114);fill-rule:nonzero;"/>
    <path d="M761.135,550.171C759.965,562.158 757.91,574.018 756.152,585.928C752.824,608.468 749.301,631.116 746.437,653.715L746.46,656.922C741.883,656.95 737.307,656.95 732.73,656.922C736.77,656.189 741.043,656.406 745.14,656.38C734.717,638.712 728.047,618.433 717.899,600.534L718.34,599.569L718.516,598.914C733.204,583.115 746.199,565.795 761.135,550.171Z" style="fill:rgb(34,121,177);fill-rule:nonzero;"/>
    <path d="M738.734,330.192C745.049,331.109 751.486,330.988 757.851,331.331L791.401,333.325C797.088,333.65 803.325,333.492 808.904,334.607C812.582,335.342 815.622,336.733 818.958,338.374C831.552,343.928 843.811,350.595 856.184,356.651C868.375,362.617 881.116,368.177 892.95,374.792C890.024,380.16 882.617,388.21 878.022,392.291C871.245,389.828 862.036,385.066 855.757,383.478L853.594,381.808C846.245,379.23 813.974,361.359 811.684,361.191C803.128,354.422 790.69,350.925 780.611,346.944C766.578,341.546 752.619,335.962 738.734,330.192Z" style="fill:rgb(34,121,177);fill-rule:nonzero;"/>
    <path d="M811.988,336.593C814.276,337.348 816.535,338.25 818.958,338.374C831.552,343.928 843.811,350.595 856.184,356.651C868.375,362.617 881.116,368.177 892.95,374.792C890.024,380.16 882.617,388.21 878.022,392.291C871.245,389.828 862.036,385.066 855.757,383.478L853.594,381.808C851.279,377.362 838.725,366.037 834.486,361.541C826.85,353.348 819.351,345.032 811.988,336.593Z" style="fill:rgb(60,156,206);fill-rule:nonzero;"/>
    <path d="M511.452,319.74C518.501,321.385 525.443,324.035 532.379,326.145L572.408,338.17C576.069,339.286 585.678,343.005 589.044,342.94C584.583,346.71 559.636,352.967 552.922,354.486C549.718,354.413 546.53,354.483 543.327,354.575C532.43,354.469 520.576,354.581 509.903,352.363L509.698,351.876L509.427,350.523C509.378,340.375 510.708,329.88 511.452,319.74Z" style="fill:rgb(136,189,219);fill-rule:nonzero;"/>
    <path d="M811.684,361.191C813.974,361.359 846.245,379.23 853.594,381.808L855.757,383.478C862.989,397.456 871.24,410.872 878.451,424.904L878.556,425.682L878.146,426.41C871.113,420.401 864.685,413.412 858.026,406.976C842.327,391.968 826.88,376.706 811.684,361.191Z" style="fill:rgb(20,72,114);fill-rule:nonzero;"/>
    <path d="M171.535,619.215C178.897,617.388 190.796,611.745 197.292,611.08C200.888,625.489 204.628,640.076 207.595,654.626C202.023,649.271 170.692,625.486 169.432,621.31C169.539,620.136 169.596,618.935 169.792,617.774L170.123,619.693C171.197,619.525 170.737,619.712 171.535,619.215Z" style="fill:rgb(28,99,151);fill-rule:nonzero;"/>
    <path d="M202.369,605.213C203.33,606.279 203.704,606.78 205.213,606.754C212.476,606.625 221.233,602.752 228.39,604.582C235.462,612.603 244.014,619.697 251.904,626.923C241.992,623.947 230.102,623.79 219.775,622.745C213.382,617.69 207.632,611.646 201.166,606.758L201.183,606.313L202.369,605.213Z" style="fill:rgb(20,72,114);fill-rule:nonzero;"/>
    <g>
        <path d="M441.781,897.137C468.205,896.038 494.725,894.185 521.174,893.927C549.081,893.654 577.046,895.029 604.936,895.921L633.717,896.641C638.121,896.772 643.252,896.485 647.538,897.401L627.25,934.629L627.111,934.906L627.468,935.426C638.056,934.393 648.695,932.479 659.246,931.016C672.982,929.111 686.874,927.529 700.518,925.073L701.642,925.162C705.219,935.345 708.649,945.758 711.559,956.151C705.658,954.874 699.455,954.271 693.479,953.373L661.634,948.442C644.218,945.694 623.979,941.24 606.781,940.151C583.502,938.676 560.03,939.067 536.711,938.983C518.343,938.917 499.969,938.348 481.598,938.231C468.841,938.149 455.979,938.447 443.238,937.838L374.911,934.457C360.479,933.752 345.972,933.316 331.57,932.162L226.727,923.106C208.995,921.565 191.322,919.683 173.541,918.745C184.699,917.184 209.11,912.632 219.134,908.572C241.198,908.237 263.282,905.756 285.345,904.969C281.833,909.893 277.189,915.188 274.693,920.635L274.894,921.395C275.961,921.474 276.341,921.502 277.377,921.128C298.384,920.032 320.635,919.065 341.491,917.223C355.851,916.454 370.727,916.326 384.975,914.471C393.782,913.325 402.736,910.541 411.367,908.404C420.824,906.063 430.666,904.095 439.913,901.057C441.226,900.034 441.388,898.665 441.781,897.137Z" style="fill:rgb(136,189,219);fill-rule:nonzero;"/>
        <path d="M781.155,931.959C794.869,937.522 808.543,943.179 822.178,948.932C817.643,950.77 728.571,953.664 722.281,952.566C729.287,949.213 737.06,946.976 744.409,944.458L781.155,931.959Z" style="fill:rgb(136,189,219);fill-rule:nonzero;"/>
        <path d="M830.865,913.939C840.063,918.151 848.945,924.672 857.368,930.259C851.765,933.32 832.398,944.922 828.034,945.808L827.932,938.584C828.378,930.343 829.727,922.11 830.865,913.939Z" style="fill:rgb(136,189,219);fill-rule:nonzero;"/>
    </g>
    <defs>
        <linearGradient id="_Linear1" x1="0" y1="0" x2="1" y2="0" gradientUnits="userSpaceOnUse" gradientTransform="matrix(83.1902,10.424,-10.424,83.1902,297.27,93.8565)"><stop offset="0" style="stop-color:rgb(29,114,173);stop-opacity:1"/><stop offset="1" style="stop-color:rgb(55,136,193);stop-opacity:1"/></linearGradient>
        <linearGradient id="_Linear2" x1="0" y1="0" x2="1" y2="0" gradientUnits="userSpaceOnUse" gradientTransform="matrix(-53.301,13.3205,-13.3205,-53.301,403.899,716.09)"><stop offset="0" style="stop-color:rgb(16,56,88);stop-opacity:1"/><stop offset="1" style="stop-color:rgb(34,98,149);stop-opacity:1"/></linearGradient>
        <linearGradient id="_Linear3" x1="0" y1="0" x2="1" y2="0" gradientUnits="userSpaceOnUse" gradientTransform="matrix(23.6507,43.1663,-43.1663,23.6507,380.322,799.356)"><stop offset="0" style="stop-color:rgb(16,71,112);stop-opacity:1"/><stop offset="1" style="stop-color:rgb(43,120,173);stop-opacity:1"/></linearGradient>
        <linearGradient id="_Linear4" x1="0" y1="0" x2="1" y2="0" gradientUnits="userSpaceOnUse" gradientTransform="matrix(21.5284,-61.6488,61.6488,21.5284,858.443,530.266)"><stop offset="0" style="stop-color:rgb(28,128,190);stop-opacity:1"/><stop offset="1" style="stop-color:rgb(62,153,204);stop-opacity:1"/></linearGradient>
    </defs>
</svg>
