<?xml version="1.0" standalone="no"?>
<!DOCTYPE svg PUBLIC "-//W3C//DTD SVG 20010904//EN"
 "http://www.w3.org/TR/2001/REC-SVG-20010904/DTD/svg10.dtd">
<svg version="1.0" xmlns="http://www.w3.org/2000/svg"
 width="800.000000pt" height="800.000000pt" viewBox="0 0 800.000000 800.000000"
 preserveAspectRatio="xMidYMid meet">
<metadata>
Created by potrace 1.11, written by Peter Selinger 2001-2013
</metadata>
<g transform="translate(0.000000,800.000000) scale(0.100000,-0.100000)"
fill="#000000" stroke="none">
<path d="M3735 7969 c-508 -32 -1028 -172 -1491 -400 -393 -194 -736 -440
-1054 -759 -616 -615 -1001 -1380 -1126 -2239 -118 -812 20 -1646 392 -2376
192 -377 426 -698 734 -1005 615 -616 1381 -1001 2239 -1126 894 -130 1818 52
2591 509 286 170 546 372 790 617 616 615 1001 1381 1126 2239 130 894 -52
1818 -509 2591 -291 492 -718 948 -1182 1263 -749 508 -1609 743 -2510 686z
m-56 -927 l415 -78 528 76 529 77 387 -290 c213 -159 388 -291 390 -293 2 -1
-8 -115 -22 -252 l-25 -251 134 -563 134 -563 -331 -615 c-181 -338 -333 -618
-337 -621 -5 -6 -851 70 -859 77 -4 2 153 197 461 572 87 106 162 203 168 215
10 24 199 681 196 683 -1 1 -67 -126 -147 -282 l-145 -284 -485 -181 c-267
-100 -489 -182 -495 -182 -5 0 -351 140 -768 312 l-757 312 -316 64 c-174 36
-322 65 -329 65 -13 0 -201 -152 -217 -175 -11 -14 -12 -22 28 262 36 258 43
392 28 539 l-6 61 165 7 165 7 192 -126 c105 -70 193 -125 195 -123 2 1 -24
59 -56 127 -33 68 -57 126 -55 128 2 3 73 0 158 -5 149 -9 165 -12 583 -120
l431 -111 417 24 c371 22 437 28 612 60 l196 36 137 -17 c75 -9 141 -20 145
-24 7 -6 -61 -134 -171 -325 -15 -25 130 111 303 285 l190 191 -345 -6 -345
-6 -165 190 c-90 105 -165 191 -166 191 -1 0 4 -28 12 -62 95 -425 92 -408 73
-408 -11 0 -119 9 -242 21 l-223 20 -228 -40 -229 -40 -336 114 -336 113 -250
18 -250 17 -320 -27 c-176 -15 -336 -29 -356 -32 l-37 -5 24 98 c13 54 26 107
29 119 4 18 17 23 80 33 l75 12 -24 42 c-13 23 -45 80 -71 127 -26 47 -49 88
-51 91 -2 3 161 54 361 114 l363 108 174 -36 c95 -20 358 -74 584 -121 226
-48 415 -86 420 -85 5 0 -170 60 -389 132 l-398 132 212 110 c116 60 218 114
225 120 12 8 6 35 -36 160 -27 82 -50 153 -50 157 0 13 23 10 449 -70z m14
-3057 c217 -192 394 -351 393 -352 -5 -5 -1291 140 -1298 146 -7 6 66 111 310
450 l123 172 38 -33 c21 -18 216 -190 434 -383z m-533 -867 c0 -34 -160 -1551
-165 -1566 -3 -9 -173 -12 -801 -12 l-796 0 6 38 c3 20 40 361 81 757 41 396
77 739 80 763 l6 42 795 0 794 0 0 -22z m1740 -4 c0 -14 -36 -367 -80 -784
-44 -417 -80 -763 -80 -769 0 -8 -229 -11 -795 -11 -758 0 -795 1 -795 18 0
10 36 359 80 777 44 418 80 767 80 777 0 17 37 18 795 18 l795 0 0 -26z m1197
-7 c241 -81 400 -304 378 -530 -19 -202 -101 -350 -250 -452 -30 -21 -55 -41
-55 -45 0 -4 49 -119 110 -255 60 -136 112 -256 115 -266 6 -19 -2 -19 -217
-17 l-223 3 -105 237 -105 238 -191 0 -191 0 -6 -47 c-4 -27 -13 -120 -22
-208 -8 -88 -18 -175 -21 -192 l-5 -33 -199 0 c-109 0 -201 4 -204 9 -5 7 131
1401 150 1544 l6 48 477 -3 476 -4 82 -27z"/>
<path d="M4880 6923 l-265 -186 -224 21 c-124 12 -226 20 -227 19 -1 -1 29
-72 66 -157 l68 -155 -181 -63 c-272 -93 -316 -111 -286 -111 15 -1 130 10
255 24 126 14 311 28 412 32 l182 6 52 94 c28 51 55 93 59 93 4 0 42 -41 85
-90 43 -50 81 -87 85 -83 4 5 26 68 50 141 24 72 46 132 50 132 3 0 37 -67 74
-149 l69 -150 80 -5 c45 -3 146 -8 226 -11 143 -6 145 -6 125 13 -18 17 -515
452 -524 458 -2 2 6 72 17 156 11 84 19 154 19 154 -1 1 -121 -81 -267 -183z"/>
<path d="M2645 6314 c-88 -84 -158 -154 -155 -155 3 -1 81 -6 173 -13 l169
-11 -7 125 c-4 69 -10 144 -14 167 l-6 41 -160 -154z"/>
<path d="M1716 2923 c-9 -66 -126 -1188 -126 -1202 0 -8 43 -11 153 -9 l152 3
23 225 c13 124 25 231 27 238 3 9 108 12 478 12 l474 0 12 133 c7 72 15 140
18 150 4 16 -23 17 -473 17 l-477 0 7 61 c3 34 6 73 6 85 l0 24 478 0 479 0
12 133 c7 72 15 142 18 155 l5 22 -630 0 -630 0 -6 -47z"/>
<path d="M3402 2368 c-35 -332 -65 -613 -68 -625 l-4 -23 630 0 c573 0 630 1
630 16 0 20 117 1143 125 1197 l5 37 -628 0 -628 0 -62 -602z m974 250 c-3
-24 -17 -158 -31 -298 -14 -140 -28 -265 -31 -277 l-4 -23 -321 0 -321 0 6 43
c3 23 17 157 31 297 14 140 28 265 31 278 l4 22 321 0 321 0 -6 -42z"/>
<path d="M5430 2715 c0 -19 -18 -195 -25 -247 l-5 -38 239 0 c285 0 330 7 384
60 34 35 37 42 37 95 0 51 -3 60 -33 90 -18 18 -51 38 -72 44 -24 6 -137 11
-282 11 -212 0 -243 -2 -243 -15z"/>
</g>
</svg>
