<svg xmlns="http://www.w3.org/2000/svg" xmlns:xlink="http://www.w3.org/1999/xlink" width="261" height="259" viewBox="0 0 261 259">
  <defs>
    <clipPath id="f0d2258d-0b4b-4c29-b4f4-9cdd6c6f0565">
      <circle cx="133" cy="131" r="128" fill="none"/>
    </clipPath>
  </defs>
  <title>rextaler_front_icon</title>
  <g id="2efeab16-be45-4b3a-bb72-3221f3936076" data-name="Ebene 2">
    <g id="e867d1a9-e018-4c7c-9970-12df580096f6" data-name="Ebene 1">
      <g>
        <g>
          <circle cx="133" cy="131" r="128" fill="#fdc422"/>
          <circle cx="133" cy="131" r="128" fill="#f7931e"/>
          <g clip-path="url(#f0d2258d-0b4b-4c29-b4f4-9cdd6c6f0565)">
            <circle cx="128" cy="128" r="128" fill="#fdc422"/>
          </g>
          <circle cx="133" cy="131" r="120.43" fill="#fdc422"/>
          <circle cx="133" cy="131" r="120.43" fill="#f7931e"/>
          <circle cx="136.25" cy="133.25" r="119.67" fill="#ffcb48"/>
        </g>
        <path d="M115.54,123.45h37.17c9.36,0,15.88-4.67,15.88-12.4,0-5.85-4.52-11.44-12.68-11.44-6.32,0-24.1-.1-38-.17l-2.42,24Zm60.16,27,18.92,42.66H159.89l-16.8-37.88H112.34l-3.82,37.88H76.61L89.22,67.86l65.91,0c29.62,0,47.12,23,45.31,43.56-1.43,16.22-7.38,29.55-24.74,39Z" fill="#f15a24"/>
        <path d="M113.78,121.7H151c9.36,0,15.88-4.67,15.88-12.4,0-5.85-4.52-11.44-12.68-11.44-6.32,0-24.1-.1-38-.17l-2.42,24Zm60.16,27,18.92,42.66H158.13l-16.8-37.88H110.58l-3.82,37.88H74.86L87.46,66.11l65.91,0c29.62,0,47.12,23,45.31,43.56-1.43,16.22-7.38,29.55-24.74,39Z" fill="#fdc422"/>
        <path d="M112,121.7h37.17c9.36,0,15.88-4.67,15.88-12.4,0-5.85-4.52-11.44-12.68-11.44-6.32,0-24.1-.1-38-.17l-2.42,24Zm60.16,27,18.92,42.66H156.38l-16.8-37.88H108.83L105,191.32H73.11L85.71,66.11l65.91,0c29.62,0,47.12,23,45.31,43.56-1.43,16.22-7.38,29.55-24.74,39Z" fill="#fdc422"/>
        <path d="M113.78,121.7H151c9.36,0,15.88-4.67,15.88-12.4,0-5.85-4.52-11.44-12.68-11.44-6.32,0-24.1-.1-38-.17l-2.42,24Zm60.16,27,18.92,42.66H158.13l-16.8-37.88H110.58l-3.82,37.88H74.86L87.46,66.11l65.91,0c29.62,0,47.12,23,45.31,43.56-1.43,16.22-7.38,29.55-24.74,39Z" fill="#f7931e"/>
        <polygon points="147.9 60.43 132.01 60.43 134.4 36.88 150.29 36.88 147.9 60.43" fill="#f15a24"/>
        <polygon points="146.9 59.43 131.01 59.43 133.4 35.88 149.29 35.88 146.9 59.43" fill="#f7931e"/>
        <polygon points="140.9 219.43 125.01 219.43 127.4 195.88 143.29 195.88 140.9 219.43" fill="#f15a24"/>
        <polygon points="139.9 218.43 124.01 218.43 126.4 194.88 142.29 194.88 139.9 218.43" fill="#f7931e"/>
      </g>
    </g>
  </g>
</svg>
